<svg width="899" height="83" viewBox="0 0 899 83" fill="none" xmlns="http://www.w3.org/2000/svg">
<path d="M39 30.8653C84.5376 11.1538 196.276 -22.8108 420.928 30.8653C645.581 84.5414 807.915 55.3944 857.5 24.5003" stroke="black" stroke-width="4" stroke-linecap="round" stroke-dasharray="13 13"/>
<circle cx="39.5" cy="42.5017" r="34.5" fill="#FFDB5C" stroke="white" stroke-width="10"/>
<circle cx="449.5" cy="42.5017" r="34.5" fill="#FFDB5C" stroke="white" stroke-width="10"/>
<circle cx="859.5" cy="42.5017" r="34.5" fill="#FFDB5C" stroke="white" stroke-width="10"/>
<path d="M35.1363 37.2977V33.4817H41.7843V51.0017H37.5123V37.2977H35.1363Z" fill="black"/>
<path d="M443.081 47.7137C443.625 47.2817 443.873 47.0817 443.825 47.1137C445.393 45.8177 446.625 44.7537 447.521 43.9217C448.433 43.0897 449.201 42.2177 449.825 41.3057C450.449 40.3937 450.761 39.5057 450.761 38.6417C450.761 37.9857 450.609 37.4737 450.305 37.1057C450.001 36.7377 449.545 36.5537 448.937 36.5537C448.329 36.5537 447.849 36.7857 447.497 37.2497C447.161 37.6977 446.993 38.3377 446.993 39.1697H443.033C443.065 37.8097 443.353 36.6737 443.897 35.7617C444.457 34.8497 445.185 34.1777 446.081 33.7457C446.993 33.3137 448.001 33.0977 449.105 33.0977C451.009 33.0977 452.441 33.5857 453.401 34.5617C454.377 35.5377 454.865 36.8097 454.865 38.3777C454.865 40.0897 454.281 41.6817 453.113 43.1537C451.945 44.6097 450.457 46.0337 448.649 47.4257H455.129V50.7617H443.081V47.7137Z" fill="black"/>
<path d="M853.458 38.4257C853.522 36.7137 854.082 35.3937 855.138 34.4657C856.194 33.5377 857.626 33.0737 859.434 33.0737C860.634 33.0737 861.658 33.2817 862.506 33.6977C863.37 34.1137 864.018 34.6817 864.45 35.4017C864.898 36.1217 865.122 36.9297 865.122 37.8257C865.122 38.8817 864.858 39.7457 864.33 40.4177C863.802 41.0737 863.186 41.5217 862.482 41.7617V41.8577C863.394 42.1617 864.114 42.6657 864.642 43.3697C865.17 44.0737 865.434 44.9777 865.434 46.0817C865.434 47.0737 865.202 47.9537 864.738 48.7217C864.29 49.4737 863.626 50.0657 862.746 50.4977C861.882 50.9297 860.85 51.1457 859.65 51.1457C857.73 51.1457 856.194 50.6737 855.042 49.7297C853.906 48.7857 853.306 47.3617 853.242 45.4577H857.226C857.242 46.1617 857.442 46.7217 857.826 47.1377C858.21 47.5377 858.77 47.7377 859.506 47.7377C860.13 47.7377 860.61 47.5617 860.946 47.2097C861.298 46.8417 861.474 46.3617 861.474 45.7697C861.474 45.0017 861.226 44.4497 860.73 44.1137C860.25 43.7617 859.474 43.5857 858.402 43.5857H857.634V40.2497H858.402C859.218 40.2497 859.874 40.1137 860.37 39.8417C860.882 39.5537 861.138 39.0497 861.138 38.3297C861.138 37.7537 860.978 37.3057 860.658 36.9857C860.338 36.6657 859.898 36.5057 859.338 36.5057C858.73 36.5057 858.274 36.6897 857.97 37.0577C857.682 37.4257 857.514 37.8817 857.466 38.4257H853.458Z" fill="black"/>
</svg>
