<svg width="914" height="717" viewBox="0 0 914 717" fill="none" xmlns="http://www.w3.org/2000/svg">
<path d="M436.105 443.586C437.198 451.78 431.767 455.001 426.535 458.507C422.065 461.477 414.681 462.086 414.515 469.242C414.25 478.295 424.449 473.858 428.622 480.371C416.787 487.117 408.168 503.004 399.69 510.993C396.381 514.111 390.972 516.151 390.972 520.698C390.972 537.086 385.839 548 369.812 553.904C357.527 558.448 349.513 571.151 334.48 574.228C314.612 578.343 296.764 592.12 275.405 593.551C271.895 593.802 268.485 600.708 265.471 604.859C239.278 614.213 251.332 622.07 239.278 620.567C237.388 620.06 235.399 620.193 233.58 620.949C231.762 621.704 230.202 623.045 229.113 624.789C219.973 643.504 202.622 645.507 186.529 651.161C182.952 652.449 182.257 650.517 179.906 649.551C168.283 644.47 154.64 643.969 146.792 653.415C133.547 669.16 113.116 664.15 99.3075 676.352C82.1216 691.631 56.0612 682.507 39.4382 702.867C33.7427 710.024 18.974 708.771 8.24524 710.024C3.97359 710.525 0.662271 710.024 0 715.534C8.8082 715.534 17.6164 716 26.4908 716L913.438 716.25V651.841C893.04 648.621 871.814 648.263 852.442 641.464C832.21 634.308 811.481 630.085 791.083 624.467C765.685 617.311 739.989 609.904 716.644 598.561C696.776 588.971 676.047 582.315 656.377 572.511C645.35 567 632.204 559.2 619.522 560.524C606.839 561.848 603.594 554.763 602.733 544.958C602.496 539.903 601.234 534.966 599.037 530.495C596.84 526.025 593.761 522.131 590.018 519.087C584.223 514.436 583.627 510.321 584.554 502.806C588.567 470.563 593.877 438.354 592.23 405.578C592.154 404.061 591.883 402.565 591.482 401.109C585.463 379.243 585.19 356.632 584.421 334.02C583.726 315.055 596.144 299.418 595.647 281.061C595.251 266.743 601.541 258.17 609.878 251C615.302 246.335 618.654 239.441 621.361 232.547C624.825 223.725 630.987 216.252 634.645 207.515C635.329 205.881 634.439 204.103 633.969 202.383C633.641 201.184 634.165 200.021 635.714 199.334C640.115 197.272 644.63 196.725 648.17 201.052C648.702 201.703 649.451 202.099 650.201 202.412C653.849 203.928 650.985 210.544 655.725 212.387C657.557 213.099 659.204 211.212 659.212 209.109C659.294 188.276 655.873 167.811 652.227 147.388C651.981 146.014 651.186 144.843 650.153 143.998C641.504 136.919 643.59 125.36 643.496 116.282C643.496 98.0331 634.39 88.5506 620.482 83.6126C619.439 83.2467 618.501 83.0094 617.647 82.8669C604.692 80.7044 586.449 81.0202 573.494 78.8536C563.56 77.2076 557.632 59.03 561.573 46.9712C567.235 29.6882 560.91 7.96816 548.327 1.7062C538.691 -3.12446 522.797 6.46527 511.902 19.2397C503.79 28.901 504.021 36.308 509.882 45.9335C515.081 54.4498 511.704 66.1508 519.353 73.9872C494.436 79.2465 488.676 100.895 480.964 120.758C479.72 123.962 479.314 127.52 478.058 130.718C475.637 136.878 469.174 139.145 464.478 143.115C461.419 145.7 460.857 150.135 460.143 154.259C457.511 169.45 443.941 177.32 436.271 188.993C429.458 199.365 423.116 198.098 420.916 186.808C420.477 184.559 420.087 182.134 418.474 180.634C417.659 179.876 416.707 179.311 415.678 178.974C414.649 178.637 413.567 178.536 412.5 178.678C411.433 178.819 410.405 179.2 409.482 179.796C408.957 180.056 408.538 180.338 408.206 180.64C403.622 184.814 412.634 195.516 408.29 199.978C401.469 206.741 402.76 213.325 408.29 219.623C417.992 230.822 416.568 244.67 417.264 258.339C421.734 296.555 426.569 334.735 430.509 373.059C432.794 396.496 437.43 419.791 436.105 443.586ZM422.86 237.371C418.82 228.425 417.529 221.948 430.608 225.276C433.556 225.992 441.172 224.131 439.682 221.698C431.933 209.747 443.986 211.285 447.265 208.673C453.225 204.402 459.374 200.449 465.689 196.826C469.391 194.703 472.301 191.304 475.018 187.858C480.508 180.894 488.441 176.598 494.135 170.023C494.589 169.499 495.4 169.619 495.671 170.274C498.325 176.69 500.085 183.408 498.727 190.378C497.76 195.342 495.722 200.052 495.312 205.105C494.488 215.256 494.414 225.864 487.688 233.639C487.35 234.03 487.046 234.464 486.853 234.956C485.63 238.068 486.265 240.04 486.604 242.667C487.028 244.672 486.92 246.767 486.294 248.71C485.667 250.653 484.546 252.365 483.06 253.652C460.676 273.475 449.251 302.209 431.8 326.112L425.178 265.639C424.449 256.264 423.655 246.817 422.827 237.371H422.86ZM548.692 411.346C548.692 431.527 549.188 451.673 549.155 471.854C549.155 500.874 549.155 500.91 522.664 498.083C513.426 497.081 504.22 495.364 495.18 493.682C472 489.352 477.299 468.634 476.669 451.53C476.968 436.179 478.987 420.936 476.073 405.478C467.894 362.538 472.762 325.79 519.121 311.441C520.673 310.816 522.109 309.895 523.359 308.721C527.333 305.465 530.313 306.181 532.201 311.155C537.367 324.752 544.552 337.813 541.142 353.593C540.52 356.436 540.338 360.611 540.871 363.183C541.19 364.722 542.373 365.834 542.875 367.315C545.454 374.932 545.534 397.939 548.724 411.346H548.692ZMnan nanCnan nan nan nan nan nanCnan nan nan nan nan nanCnan nan nan nan nan nanL647.134 155.804C647.389 156.079 647.545 156.45 647.575 156.837C648.81 173.139 649.84 180.197 650.859 192.497C650.906 193.074 650.485 193.573 649.948 193.573H646.469C645.87 193.573 645.434 192.959 645.53 192.32C647.387 179.974 631.786 172.731 646.098 155.839C646.371 155.517 646.849 155.496 647.134 155.804Lnan nanCnan nan nan nan nan nanCnan nan nan nan nan nanCnan nan nan nan nan nanLnan nanZ" fill="#181B64"/>
</svg>
