<svg width="1512" height="982" viewBox="0 0 1512 982" fill="none" xmlns="http://www.w3.org/2000/svg">
<g clip-path="url(#clip0_568_1180)">
<path d="M368.219 144.822C367.436 145.658 366.604 146.447 365.728 147.185C361.679 150.169 356.818 151.851 351.791 152.008C343.379 152.364 335.135 151.089 326.96 149.339C326.035 149.045 325.037 149.082 324.135 149.442C323.234 149.803 322.485 150.465 322.018 151.316C320.437 153.825 318.701 156.231 316.819 158.522C312.944 162.941 309.741 162.951 305.56 158.799C303.975 157.292 302.487 155.688 301.102 153.995C300.4 153.086 299.57 151.583 299.886 150.773C300.203 149.962 301.863 149.428 302.97 149.191C305.254 148.717 307.596 148.549 309.89 148.203C310.661 148.084 311.424 147.916 312.173 147.699C314.012 147.204 315.504 146.305 315.88 144.259C316.255 142.212 315.109 140.937 313.656 139.949C308.031 136.153 302.249 132.585 296.723 128.661C289.626 123.629 283.013 118.015 278.338 110.522C277.036 108.229 275.935 105.828 275.046 103.346C274.829 102.812 275.194 102.041 275.303 101.369C275.936 101.507 276.727 101.438 277.201 101.794C284.901 107.606 293.906 110.839 302.614 114.644C309.168 117.501 313.942 122.265 318.025 127.909C319.221 129.55 320.526 131.102 321.781 132.694C323.036 134.285 324.499 134.413 326.318 133.484C327.916 132.546 329.676 131.919 331.507 131.636C334.414 131.399 336.45 133.247 337.992 135.59C338.477 136.37 339.161 137.007 339.974 137.435C340.787 137.862 341.7 138.065 342.618 138.021C345.247 138.261 347.833 138.85 350.308 139.771C353.619 140.898 356.753 142.578 360.094 143.606C362.526 144.328 365.145 144.387 368.219 144.822Z" fill="#181B64"/>
<path d="M207.89 163.297C208.075 163.648 208.236 164.011 208.374 164.384C209.719 169.32 212.638 173.682 216.687 176.809C217.462 177.403 218.092 178.165 218.529 179.039C218.965 179.912 219.197 180.874 219.208 181.85C219.366 186.792 219.603 191.666 219.88 196.578C220.048 199.613 220.502 199.771 223.547 200.196C225.135 200.525 226.785 200.397 228.303 199.826C229.822 199.256 231.148 198.267 232.127 196.974C233.906 194.858 236.308 193.237 238.463 191.448C240.618 189.659 243.524 188.334 243.959 184.904C244.477 186.495 244.604 188.188 244.329 189.838C244.053 191.488 243.384 193.048 242.377 194.384C239.362 198.674 235.181 201.451 230.516 203.626C229.769 203.839 229.076 204.206 228.479 204.703C226.038 207.728 222.766 209.033 219.119 209.992C216.984 210.545 215.115 212.038 213.049 212.957C211.214 213.776 209.313 214.438 207.366 214.934C206.95 214.972 206.531 214.913 206.142 214.762C205.753 214.611 205.404 214.372 205.122 214.064C203.639 212.008 202.374 209.794 200.684 207.096C203.224 206.819 205.191 206.532 207.158 206.394C210.776 206.147 211.616 204.417 210.124 201.204C209.499 199.627 209.432 197.883 209.936 196.262C212.18 189.343 210.796 183.333 206.545 177.55C203.244 172.984 203.807 169.02 207.89 163.297Z" fill="#181B64"/>
<path d="M266.644 247.247C265.023 249.807 263.343 250.133 261.277 250.311C253.725 250.954 245.906 250.311 238.967 254.265C237.326 255.254 235.31 255.787 235.013 258.219C235.013 258.555 233.926 258.921 233.303 259.03C231.323 259.422 229.318 259.683 227.303 259.811C225.75 259.739 224.206 259.537 222.687 259.208C222.974 258.575 223.013 258.328 223.161 258.219C226.127 255.432 225.692 253.049 221.738 251.587C216.845 249.778 211.903 248.107 206.98 246.348C206.132 246.045 205.342 245.597 204.647 245.023C212.783 244.667 220.937 243.916 227.382 250.44C229.814 252.891 232.868 252.555 235.705 251.428C242.463 248.717 249.604 247.08 256.868 246.575C259.913 246.318 263.026 246.97 266.644 247.247Z" fill="#181B64"/>
<path d="M166.552 249.59C162.42 252.822 158.733 255.422 153.82 254.957C152.031 254.789 151.29 255.244 150.766 257.112C150.361 258.575 149.066 260.522 147.801 260.839C146.873 260.981 145.925 260.823 145.094 260.387C144.263 259.951 143.594 259.261 143.185 258.417L148.552 254.75L148.354 253.84C147.109 253.326 145.843 252.852 144.618 252.278C140.535 250.4 136.433 248.552 132.41 246.555C131.515 245.965 130.825 245.112 130.433 244.114C136.512 244.865 142.799 244.4 147.722 248.799C148.878 249.837 149.906 250.025 151.191 248.977C152.476 247.929 153.643 247.672 154.878 249.125C155.374 249.469 155.98 249.617 156.578 249.54C159.662 249.61 162.746 249.59 166.552 249.59Z" fill="#181B64"/>
<path d="M148.769 292.47C149.194 295.514 148.68 297.728 146.733 299.31C145.072 300.664 143.066 301.603 141.366 302.928C140.468 303.823 139.676 304.818 139.003 305.893L136.325 305.181C136.325 305.003 136.166 304.786 136.226 304.726C138.954 301.85 137.214 299.072 135.9 296.404C135.339 295.501 134.499 294.807 133.507 294.427C131.135 293.438 130.107 291.669 129.919 289.01C132.442 290.046 134.901 291.231 137.283 292.558C138.183 293.112 138.558 294.624 139.033 295.761C140.624 299.586 142.928 299.942 145.567 296.7C146.565 295.504 147.474 294.189 148.769 292.47Z" fill="#181B64"/>
<mask id="mask0_568_1180" style="mask-type:alpha" maskUnits="userSpaceOnUse" x="0" y="129" width="1512" height="882">
<rect y="129" width="1512" height="882" fill="#D4D5E9"/>
</mask>
<g mask="url(#mask0_568_1180)">
<mask id="mask1_568_1180" style="mask-type:alpha" maskUnits="userSpaceOnUse" x="0" y="624" width="1512" height="631">
<rect y="624" width="1512" height="631" fill="#C4C4C4"/>
</mask>
<g mask="url(#mask1_568_1180)">
<path d="M-140.852 752.06L-150.214 752.01C-176.928 764.197 -192.13 781.066 -193.17 803.395C-193.542 811.025 -196.842 814.658 -209.102 812.04C-215.461 810.493 -222.244 809.982 -228.922 810.549C-235.601 811.116 -241.993 812.744 -247.601 815.307C-250.603 816.728 -254.282 817.295 -257.88 816.891C-261.478 816.487 -264.721 815.143 -266.941 813.137C-287.781 795.107 -314.084 799.23 -340.608 803.403L-340.992 875.741L-343 1253.63L1853.33 1256.2L1854.9 959.571L1855.25 893.793C1828.96 888.573 1803.65 887.188 1782.59 902.392C1776.27 906.902 1769.61 904.186 1762.68 903.562C1753.43 902.773 1744.28 897.798 1735.02 900.863C1709.17 909.353 1707.19 900.383 1707.27 885.4C1707.26 867.021 1680.98 845.823 1656.13 840.126C1620.38 832.023 1591.11 838.734 1566.1 857.26C1560.77 861.163 1559.43 870.524 1547.62 867.015C1542.47 865.701 1537.85 863.547 1534.15 860.737C1530.45 857.927 1527.78 854.543 1526.36 850.872C1517.88 830.381 1495.67 819.95 1465.28 817.67C1440.92 815.779 1422.42 823.211 1408.6 836.028C1399.56 844.404 1390.85 846.476 1376.31 842.519C1328.32 829.45 1299.25 833.431 1270.21 861.202C1254.94 875.772 1239.99 867.065 1223.95 867.184C1207.92 867.303 1208.97 857.43 1206.54 850.5C1190.45 804.902 1151.9 783.357 1085.76 784.691C1056.72 785.277 1032.6 794.976 1013.57 809.552C995.364 823.571 976.951 827.251 950.863 818.842C918.923 808.539 884.3 817.85 866.638 839.836C859.959 848.097 852.324 849.205 839.577 847.988C817.472 845.931 795.354 846.349 776.87 856.589C770.216 860.281 765.527 861.762 759.624 855.885C741.365 837.639 710.285 838.98 684.185 832.792C681.46 832.165 675.888 833.462 675.412 832.745C664.046 814.51 633.836 811.823 616.621 798.203C587.33 775.074 542.874 775.756 515.431 800.217C505.506 809.073 495.856 814.638 479.3 815.724C459.316 817.022 448.032 831.716 426.904 833.16C416.654 833.846 409.548 832.379 399.718 830.106C371.592 823.626 349.88 810.135 323.787 802.543C303.399 796.589 271.005 802.416 253.645 823.076C250.045 828 245.603 832.604 240.413 836.79C227.02 846.342 216.966 844.604 209.659 832.414C181.093 783.866 108.614 779.524 63.5304 808.103C55.6897 813.09 51.6763 812.277 42.1005 810.848C12.8575 806.456 -9.41886 795.08 -31.467 782.379L-41.0122 782.124C-55.4907 787.714 -73.4588 784.07 -87.7582 790.631C-88.6677 790.936 -89.6614 791.102 -90.6729 791.12C-91.6845 791.137 -92.6906 791.005 -93.6242 790.732C-94.5577 790.459 -95.3971 790.051 -96.0864 789.536C-96.7756 789.021 -97.2989 788.41 -97.6212 787.745C-106.756 772.662 -129.017 765.447 -140.852 752.06Z" fill="#41448F"/>
</g>
<path d="M1092.5 685.366C1093.69 693.657 1087.76 696.915 1082.04 700.463C1077.16 703.468 1069.09 704.083 1068.91 711.324C1068.62 720.483 1079.76 715.994 1084.32 722.583C1071.31 729.451 1061.86 745.682 1052.54 753.715C1048.97 756.787 1043.18 758.68 1043.18 763.385C1043.18 779.966 1037.57 791.008 1020.06 796.982C1006.64 801.579 997.884 814.432 981.458 817.545C959.75 821.709 940.249 835.647 916.912 837.095C913.077 837.349 909.351 844.336 906.058 848.536C877.44 858 890.609 865.949 877.44 864.429C875.374 863.916 873.2 864.051 871.214 864.815C869.227 865.579 867.523 866.936 866.332 868.701C856.346 887.635 837.388 889.663 819.804 895.383C815.897 896.686 815.137 894.731 812.568 893.754C799.869 888.613 784.962 888.106 776.388 897.664C761.916 913.593 739.592 908.525 724.505 920.87C705.727 936.329 677.253 927.097 659.091 947.697C652.868 954.938 636.731 953.671 625.009 954.938C620.342 955.445 616.724 954.938 616 960.513C625.624 960.513 635.248 960.984 644.944 960.984L1614.04 961.237V896.071C1591.75 892.813 1568.56 892.451 1547.39 885.572C1525.29 878.331 1502.64 874.059 1480.35 868.375C1452.6 861.134 1424.52 853.64 1399.02 842.164C1377.31 832.461 1354.66 825.727 1333.17 815.807C1321.12 810.232 1306.76 802.34 1292.9 803.679C1279.04 805.019 1275.5 797.85 1274.56 787.931C1274.3 782.816 1272.92 777.821 1270.52 773.298C1268.12 768.775 1264.75 764.834 1260.66 761.755C1254.33 757.049 1253.68 752.886 1254.69 745.283C1259.08 712.66 1264.88 680.072 1263.08 646.911C1263 645.376 1262.7 643.862 1262.26 642.389C1255.69 620.266 1255.39 597.388 1254.55 574.51C1253.79 555.323 1267.36 539.501 1266.81 520.929C1266.38 506.442 1273.25 497.768 1282.36 490.514C1288.29 485.794 1291.95 478.819 1294.91 471.844C1298.69 462.918 1305.43 455.357 1309.42 446.518C1310.17 444.864 1309.2 443.065 1308.68 441.325C1308.33 440.112 1308.9 438.935 1310.59 438.24C1315.4 436.154 1320.33 435.6 1324.2 439.978C1324.78 440.637 1325.6 441.038 1326.42 441.354C1330.41 442.889 1327.28 449.582 1332.45 451.447C1334.46 452.168 1336.26 450.257 1336.27 448.13C1336.35 427.052 1332.62 406.346 1328.63 385.683C1328.36 384.293 1327.5 383.108 1326.37 382.254C1316.92 375.091 1319.2 363.395 1319.09 354.211C1319.09 335.748 1309.14 326.154 1293.95 321.157C1292.81 320.787 1291.78 320.547 1290.85 320.403C1276.7 318.215 1256.76 318.534 1242.61 316.342C1231.75 314.677 1225.28 296.286 1229.58 284.085C1235.77 266.599 1228.86 244.623 1215.11 238.287C1204.58 233.4 1187.22 243.102 1175.31 256.027C1166.45 265.802 1166.7 273.296 1173.11 283.035C1178.79 291.651 1175.1 303.49 1183.45 311.419C1156.23 316.74 1149.94 338.643 1141.51 358.74C1140.15 361.981 1139.71 365.581 1138.33 368.817C1135.69 375.05 1128.63 377.343 1123.5 381.359C1120.15 383.976 1119.54 388.463 1118.76 392.635C1115.88 408.005 1101.06 415.967 1092.68 427.777C1085.23 438.271 1078.3 436.99 1075.9 425.567C1075.42 423.291 1074.99 420.838 1073.23 419.32C1072.34 418.553 1071.3 417.981 1070.18 417.64C1069.05 417.3 1067.87 417.197 1066.7 417.341C1065.54 417.484 1064.41 417.87 1063.41 418.473C1062.83 418.735 1062.38 419.021 1062.01 419.327C1057 423.549 1066.85 434.377 1062.1 438.892C1054.65 445.734 1056.06 452.396 1062.1 458.767C1072.71 470.099 1071.15 484.11 1071.91 497.94C1076.79 536.605 1082.08 575.234 1086.38 614.009C1088.88 637.722 1093.94 661.291 1092.5 685.366ZM1078.02 476.725C1073.61 467.674 1072.2 461.121 1086.49 464.488C1089.71 465.212 1098.03 463.329 1096.4 460.867C1087.94 448.775 1101.11 450.332 1104.69 447.689C1111.2 443.368 1117.92 439.368 1124.82 435.703C1128.86 433.554 1132.04 430.116 1135.01 426.629C1141.01 419.583 1149.68 415.237 1155.9 408.584C1156.4 408.054 1157.28 408.175 1157.58 408.838C1160.48 415.33 1162.4 422.127 1160.92 429.179C1159.86 434.201 1157.63 438.966 1157.19 444.079C1156.29 454.349 1156.2 465.082 1148.86 472.949C1148.49 473.344 1148.15 473.783 1147.94 474.281C1146.61 477.43 1147.3 479.425 1147.67 482.083C1148.13 484.112 1148.02 486.231 1147.33 488.197C1146.65 490.163 1145.42 491.896 1143.8 493.197C1119.34 513.254 1106.86 542.325 1087.79 566.509L1080.56 505.325C1079.76 495.84 1078.89 486.282 1077.99 476.725H1078.02ZM1215.51 652.746C1215.51 673.165 1216.05 693.548 1216.02 713.967C1216.02 743.328 1216.02 743.364 1187.07 740.504C1176.98 739.49 1166.92 737.753 1157.04 736.051C1131.72 731.67 1137.5 710.708 1136.82 693.403C1137.14 677.872 1139.35 662.449 1136.17 646.809C1127.23 603.365 1132.55 566.184 1183.2 551.666C1184.9 551.034 1186.46 550.102 1187.83 548.915C1192.17 545.62 1195.43 546.344 1197.49 551.376C1203.14 565.134 1210.99 578.348 1207.26 594.314C1206.58 597.19 1206.38 601.415 1206.96 604.016C1207.31 605.574 1208.61 606.699 1209.15 608.198C1211.97 615.904 1212.06 639.182 1215.55 652.746H1215.51ZMnan nanL1323.07 394.198C1323.35 394.476 1323.52 394.851 1323.55 395.243C1324.9 411.737 1326.03 418.878 1327.14 431.323C1327.19 431.907 1326.73 432.411 1326.14 432.411H1322.34C1321.69 432.411 1321.21 431.791 1321.32 431.144C1323.34 418.652 1306.3 411.324 1321.94 394.233C1322.23 393.908 1322.76 393.886 1323.07 394.198Lnan nanZM931.312 886.73C928.237 888.179 925.234 889.808 922.086 891.002C917.889 892.595 914.054 896.795 909.061 893.32C908.564 893.032 908.131 892.644 907.791 892.18C907.45 891.716 907.21 891.187 907.084 890.626C906.958 890.065 906.95 889.484 907.06 888.919C907.17 888.355 907.395 887.819 907.722 887.346C909.335 885.605 911.314 884.244 913.517 883.361C915.719 882.478 918.09 882.096 920.458 882.241C924.293 882.169 928.779 881.191 931.312 886.73Z" fill="#181B64"/>
<path d="M1613.68 841.108C1589.4 842.821 1570.22 853.866 1559.99 879.137C1555.64 889.876 1548.74 890.916 1539.29 892.935C1517.51 897.586 1494.23 895.781 1474.3 909.334C1470.31 912.026 1466.45 910.435 1462.3 909.793C1421.11 903.337 1414.99 913.862 1395 945.925C1384.94 962.11 1371.97 965.659 1361.75 950.208C1345.12 925.029 1322.5 920.685 1297.03 924.509C1287.6 926.277 1278.96 931.402 1272.42 939.103C1256.12 956.511 1227.13 953.36 1210.89 936.043C1177.85 901.012 1132.51 893.547 1092.52 937.144C1084.92 945.436 1080.71 945.742 1068.88 943.539C1047.89 939.562 1038.22 924.325 1024.78 911.629C1007.85 895.628 986.505 895.597 966.078 909.732C957.57 915.637 951.417 919.644 948.008 902.573C940.885 866.838 911.978 847.104 879.107 852.244C865.665 854.355 853.803 851.938 842.883 840.985C823.925 822.017 794.575 826.3 778.583 848.634C766.499 865.522 754.027 877.607 730.94 873.446C709.183 869.53 690.392 881.707 679.167 903.827C671.795 918.359 666.39 933.443 646.241 924.448C640.698 921.97 630.748 924.203 625.815 928.486C611.264 941.183 594.829 939.164 578.393 939.806C573.614 939.821 568.912 941.134 564.702 943.63C551.62 952.595 542.114 948.801 532.746 936.38C519.692 919.155 501.51 921.388 484.77 925.977C470.053 930.016 465.148 923.469 462.931 909.579C459.189 885.96 438.292 862.188 420.581 861.086C408.558 860.529 396.714 864.45 386.953 872.218C377.191 879.986 370.079 891.151 366.758 903.919C365.261 909.334 368.698 919.369 359.053 918.329C351.237 917.472 353.51 908.386 351.292 902.695C338.488 868.857 315.401 840.863 274.714 842.485C250.131 843.464 218.036 863.564 209.888 900.614C206.451 916.248 200.021 920.379 186.551 920.195C167.539 919.92 152.378 930.995 140.488 946.323C130.427 959.264 121.087 961.62 105.206 957.031C82.8397 950.545 62.7737 949.474 50.6066 920.073C41.7376 898.656 1.9104 902.94 -10.8387 923.499C-19.486 937.451 -27.2463 938.399 -37.8336 927.721C-37.8336 952.687 -37.5566 977.621 -38 1002.56C-38 1009.16 -37.1685 1011.98 -30.7385 1010.6C-27.7702 1010.3 -24.7824 1010.3 -21.8141 1010.6C518.029 1010.6 1057.88 1010.73 1597.74 1011C1611.6 1011 1614.23 1007.15 1613.98 992.643C1613.15 942.193 1613.68 891.65 1613.68 841.108Z" fill="#181B64"/>
</g>
</g>
<defs>
<clipPath id="clip0_568_1180">
<rect width="1512" height="982" fill="white"/>
</clipPath>
</defs>
</svg>
