<svg width="513" height="538" viewBox="0 0 513 538" fill="none" xmlns="http://www.w3.org/2000/svg">
<rect x="34" width="393" height="527" fill="url(#paint0_linear_53_46)"/>
<path d="M0 537.14C1.38104 536.49 2.72681 535.769 4.03178 534.978C13.6783 528.442 23.336 521.906 32.8998 515.282C37.6799 511.973 42.3956 508.559 47.047 505.04C50.6265 502.321 54.173 500.914 58.2655 503.904C60.9405 505.862 63.5383 504.924 65.6728 503.153C70.3664 499.259 74.8395 495.101 79.4229 491.075C80.2557 490.347 81.2374 489.122 82.0923 489.177C89.9353 489.641 94.7779 483.827 100.806 480.501C108.037 476.519 115.262 472.521 122.548 468.638C125.472 467.082 128.064 468.241 130.375 470.232C132.686 472.223 134.627 474.484 138.648 474.407C140.821 474.368 143.446 478.058 145.195 480.535C149.359 486.425 150.319 487.015 156.298 482.636C161.184 479.051 165.348 474.495 170.086 470.662C176.032 465.83 182.176 461.225 188.353 456.691C189.363 455.947 191.166 455.489 192.308 455.847C200.267 458.34 206.422 454.524 212.429 450.332C224.645 441.783 236.73 433.03 249.024 424.597C250.91 423.306 253.64 422.859 256.012 422.744C260.639 422.529 265.339 423.637 269.591 420.477C270.738 419.622 272.867 420.041 274.555 419.953C281.052 419.594 287.593 419.6 294.036 418.85C300.384 418.094 302.971 414.437 302.309 407.786C301.277 397.505 299.998 387.252 298.812 376.987C298.769 376.563 298.696 376.143 298.591 375.73C297.808 372.713 299.215 369.255 296.093 366.607C295.095 365.758 295.376 363.05 295.541 361.241C296.22 353.883 297.196 346.553 297.781 339.179C297.94 337.133 297.495 335.084 296.501 333.289C291.074 324.276 285.327 315.463 279.883 306.461C279.232 305.358 279.701 303.577 279.762 302.11C279.839 300.174 279.932 298.249 280.203 296.307C280.357 295.204 280.638 293.384 281.306 293.169C281.953 292.996 282.629 292.955 283.293 293.05C283.956 293.145 284.594 293.373 285.167 293.721C285.895 294.212 285.944 295.822 286.143 296.964C286.485 298.916 286.143 301.255 287.07 302.794C290.93 309.004 294.968 315.132 299.386 320.95C300.952 323.008 303.798 324.089 305.739 325.401C306.66 320.906 307.135 316.869 308.464 313.135C308.878 311.977 311.713 310.841 313.24 311.067C318.541 311.839 321.172 316.935 319.307 322.098C318.756 323.543 317.951 324.855 317.758 327.365C319.809 326.383 322.578 325.925 323.769 324.309C327.111 319.613 330.145 314.705 332.853 309.616C333.46 308.513 332.66 306.71 332.765 305.248C332.842 304.095 333.002 302.683 333.708 301.939C334.221 301.387 336.047 301.238 336.632 301.718C337.641 302.548 338.296 303.731 338.463 305.027C338.887 315.369 334.359 323.813 327.983 331.502C326.268 333.57 326.086 335.666 326.235 338.49C326.593 345.511 325.887 352.593 325.59 359.652C325.549 359.937 325.426 360.203 325.237 360.419C316.963 370.705 322.159 380.898 325.237 391.223C327.222 397.88 328.629 404.708 330.201 411.487C330.697 413.654 330.84 415.899 331.166 418.298H350.691V413.334C350.641 376.739 350.641 340.15 350.459 303.577C350.459 300.146 351.303 298.563 354.739 297.664C364.617 295.078 374.12 294.57 384.021 298.365C389.326 300.4 395.526 300.108 401.609 300.902C400.269 307.829 398.741 315.694 397.197 323.73C391.656 326.817 385.147 327.675 378.996 326.129C375.984 325.401 372.51 326.223 369.311 326.736C364.17 327.558 359.074 328.705 353.476 329.814V419.418C358.109 419.556 362.852 419.418 367.557 419.936C370.033 420.196 372.35 421.685 374.821 422.297C377.292 422.909 380 423.576 382.542 423.461C386.508 423.279 389.713 424.045 392.277 427.321C394.351 430.002 397.07 431.403 400.732 431.055C405.393 430.609 407.627 434.569 410.335 437.293C413.732 440.713 416.584 444.679 419.965 448.12C421.375 449.431 423.14 450.296 425.039 450.608C428.117 451.059 430.919 452.63 432.91 455.02C440.703 463.845 449.009 472.239 456.737 481.125C460.465 485.41 463.769 489.679 470.2 489.365C470.95 489.332 471.899 490.313 472.505 491.019C483.073 503.506 493.536 516.082 504.175 528.524C506.845 531.641 510.038 534.31 513 537.184V538C510.579 538 508.163 537.95 505.742 537.95H31.6643C21.1408 537.95 10.6172 537.965 0.09372 537.994L0 537.14ZM311.073 382.155L309.738 382.194C309.738 393.666 309.694 405.138 309.832 416.61C309.832 417.405 311.233 418.85 311.994 418.861C315.303 418.916 318.673 418.552 322.087 418.309C321.177 404.956 318.221 392.944 311.089 382.155H311.073Z" fill="#FFF5D0"/>
<defs>
<linearGradient id="paint0_linear_53_46" x1="87.0238" y1="598.247" x2="524.677" y2="449.894" gradientUnits="userSpaceOnUse">
<stop offset="0.363086" stop-color="#FFDD9B"/>
<stop offset="1" stop-color="#FFE586"/>
</linearGradient>
</defs>
</svg>
