<svg width="393" height="538" viewBox="0 0 393 538" fill="none" xmlns="http://www.w3.org/2000/svg">
<rect width="393" height="538" fill="#E5E5E5"/>
<rect width="393" height="527" fill="url(#paint0_linear_0_1)"/>
<path d="M-34 537.14C-32.619 536.49 -31.2732 535.769 -29.9682 534.978C-20.3217 528.442 -10.664 521.906 -1.10017 515.282C3.67991 511.973 8.39559 508.559 13.047 505.04C16.6265 502.321 20.173 500.914 24.2655 503.904C26.9405 505.862 29.5383 504.924 31.6728 503.153C36.3664 499.259 40.8395 495.101 45.4229 491.075C46.2557 490.347 47.2374 489.122 48.0923 489.177C55.9353 489.641 60.7779 483.827 66.8063 480.501C74.0371 476.519 81.2624 472.521 88.5483 468.638C91.4715 467.082 94.0638 468.241 96.3748 470.232C98.6858 472.223 100.627 474.484 104.648 474.407C106.821 474.368 109.446 478.058 111.195 480.535C115.359 486.425 116.319 487.015 122.298 482.636C127.184 479.051 131.348 474.495 136.086 470.662C142.032 465.83 148.176 461.225 154.353 456.691C155.363 455.947 157.166 455.489 158.308 455.847C166.267 458.34 172.422 454.524 178.429 450.332C190.645 441.783 202.73 433.03 215.024 424.597C216.91 423.306 219.64 422.859 222.012 422.744C226.639 422.529 231.339 423.637 235.591 420.477C236.738 419.622 238.867 420.041 240.555 419.953C247.052 419.594 253.593 419.6 260.036 418.85C266.384 418.094 268.971 414.437 268.309 407.786C267.277 397.505 265.998 387.252 264.812 376.987C264.769 376.563 264.696 376.143 264.591 375.73C263.808 372.713 265.215 369.255 262.093 366.607C261.095 365.758 261.376 363.05 261.541 361.241C262.22 353.883 263.196 346.553 263.781 339.179C263.94 337.133 263.495 335.084 262.501 333.289C257.074 324.276 251.327 315.463 245.883 306.461C245.232 305.358 245.701 303.577 245.762 302.11C245.839 300.174 245.932 298.249 246.203 296.307C246.357 295.204 246.638 293.384 247.306 293.169C247.953 292.996 248.629 292.955 249.293 293.05C249.956 293.145 250.594 293.373 251.167 293.721C251.895 294.212 251.944 295.822 252.143 296.964C252.485 298.916 252.143 301.255 253.07 302.794C256.93 309.004 260.968 315.132 265.386 320.95C266.952 323.008 269.798 324.089 271.739 325.401C272.66 320.906 273.135 316.869 274.464 313.135C274.878 311.977 277.713 310.841 279.24 311.067C284.541 311.839 287.172 316.935 285.307 322.098C284.756 323.543 283.951 324.855 283.758 327.365C285.809 326.383 288.578 325.925 289.769 324.309C293.111 319.613 296.145 314.705 298.853 309.616C299.46 308.513 298.66 306.71 298.765 305.248C298.842 304.095 299.002 302.683 299.708 301.939C300.221 301.387 302.047 301.238 302.632 301.718C303.641 302.548 304.296 303.731 304.463 305.027C304.887 315.369 300.359 323.813 293.983 331.502C292.268 333.57 292.086 335.666 292.235 338.49C292.593 345.511 291.887 352.593 291.59 359.652C291.549 359.937 291.426 360.203 291.237 360.419C282.963 370.705 288.159 380.898 291.237 391.223C293.222 397.88 294.629 404.708 296.201 411.487C296.697 413.654 296.84 415.899 297.166 418.298H316.691V413.334C316.641 376.739 316.641 340.15 316.459 303.577C316.459 300.146 317.303 298.563 320.739 297.664C330.617 295.078 340.12 294.57 350.021 298.365C355.326 300.4 361.526 300.108 367.609 300.902C366.269 307.829 364.741 315.694 363.197 323.73C357.656 326.817 351.147 327.675 344.996 326.129C341.984 325.401 338.51 326.223 335.311 326.736C330.17 327.558 325.074 328.705 319.476 329.814V419.418C324.109 419.556 328.852 419.418 333.557 419.936C336.033 420.196 338.35 421.685 340.821 422.297C343.292 422.909 346 423.576 348.542 423.461C352.508 423.279 355.713 424.045 358.277 427.321C360.351 430.002 363.07 431.403 366.732 431.055C371.393 430.609 373.627 434.569 376.335 437.293C379.732 440.713 382.584 444.679 385.965 448.12C387.375 449.431 389.14 450.296 391.039 450.608C394.117 451.059 396.919 452.63 398.91 455.02C406.703 463.845 415.009 472.239 422.737 481.125C426.465 485.41 429.769 489.679 436.2 489.365C436.95 489.332 437.899 490.313 438.505 491.019C449.073 503.506 459.536 516.082 470.175 528.524C472.845 531.641 476.038 534.31 479 537.184V538C476.579 538 474.163 537.95 471.742 537.95H-2.3357C-12.8592 537.95 -23.3828 537.965 -33.9063 537.994L-34 537.14ZM277.073 382.155L275.738 382.194C275.738 393.666 275.694 405.138 275.832 416.61C275.832 417.405 277.233 418.85 277.994 418.861C281.303 418.916 284.673 418.552 288.087 418.309C287.177 404.956 284.221 392.944 277.089 382.155H277.073Z" fill="#FFF5D0"/>
<defs>
<linearGradient id="paint0_linear_0_1" x1="53.0238" y1="598.247" x2="490.677" y2="449.894" gradientUnits="userSpaceOnUse">
<stop offset="0.363086" stop-color="#FFDD9B"/>
<stop offset="1" stop-color="#FFE586"/>
</linearGradient>
</defs>
</svg>
