<svg width="1512" height="699" viewBox="0 0 1512 699" fill="none" xmlns="http://www.w3.org/2000/svg">
<rect width="1512" height="699" fill="#E5E5E5"/>
<rect width="1512" height="699" fill="url(#paint0_linear_0_1)"/>
<mask id="mask0_0_1" style="mask-type:alpha" maskUnits="userSpaceOnUse" x="435" y="104" width="1246" height="595">
<path d="M435 696.91C438.354 695.334 441.623 693.581 444.793 691.66C468.223 675.787 491.68 659.914 514.909 643.827C526.519 635.791 537.973 627.499 549.27 618.953C557.964 612.35 566.578 608.934 576.518 616.194C583.015 620.949 589.325 618.672 594.509 614.372C605.909 604.916 616.774 594.816 627.906 585.038C629.929 583.27 632.314 580.296 634.39 580.43C653.439 581.556 665.201 567.438 679.843 559.361C697.406 549.69 714.955 539.979 732.652 530.549C739.752 526.771 746.048 529.584 751.661 534.42C757.274 539.255 761.989 544.747 771.755 544.559C777.033 544.466 783.41 553.427 787.657 559.441C797.771 573.747 800.102 575.18 814.623 564.544C826.492 555.838 836.607 544.774 848.114 535.465C862.555 523.731 877.479 512.546 892.482 501.536C894.934 499.728 899.315 498.616 902.088 499.487C921.418 505.541 936.369 496.272 950.957 486.092C980.63 465.33 1009.98 444.073 1039.84 423.592C1044.42 420.458 1051.05 419.373 1056.81 419.092C1068.05 418.569 1079.47 421.262 1089.8 413.586C1092.58 411.51 1097.75 412.528 1101.85 412.314C1117.63 411.443 1133.52 411.457 1149.17 409.635C1164.59 407.8 1170.87 398.919 1169.26 382.765C1166.76 357.798 1163.65 332.897 1160.77 307.97C1160.67 306.94 1160.49 305.919 1160.23 304.916C1158.33 297.589 1161.75 289.19 1154.17 282.761C1151.74 280.698 1152.42 274.121 1152.83 269.728C1154.47 251.859 1156.84 234.058 1158.26 216.149C1158.65 211.179 1157.57 206.205 1155.16 201.844C1141.97 179.957 1128.02 158.552 1114.79 136.692C1113.21 134.013 1114.35 129.687 1114.5 126.124C1114.69 121.422 1114.91 116.747 1115.57 112.032C1115.95 109.353 1116.63 104.933 1118.25 104.411C1119.82 103.989 1121.46 103.891 1123.08 104.121C1124.69 104.351 1126.24 104.906 1127.63 105.75C1129.4 106.942 1129.52 110.854 1130 113.626C1130.83 118.368 1130 124.047 1132.25 127.785C1141.63 142.867 1151.43 157.748 1162.16 171.88C1165.97 176.876 1172.88 179.501 1177.6 182.689C1179.83 171.773 1180.98 161.968 1184.21 152.9C1185.22 150.087 1192.1 147.327 1195.81 147.877C1208.69 149.752 1215.08 162.128 1210.55 174.666C1209.21 178.175 1207.25 181.363 1206.79 187.458C1211.77 185.073 1218.49 183.962 1221.39 180.037C1229.5 168.631 1236.87 156.711 1243.45 144.354C1244.92 141.675 1242.98 137.295 1243.24 133.745C1243.42 130.946 1243.81 127.517 1245.53 125.708C1246.77 124.369 1251.21 124.007 1252.63 125.173C1255.08 127.188 1256.67 130.062 1257.08 133.209C1258.11 158.324 1247.11 178.832 1231.62 197.504C1227.46 202.527 1227.01 207.617 1227.38 214.475C1228.25 231.526 1226.53 248.725 1225.81 265.87C1225.71 266.561 1225.41 267.208 1224.95 267.732C1204.86 292.713 1217.48 317.466 1224.95 342.541C1229.77 358.709 1233.19 375.291 1237.01 391.753C1238.21 397.017 1238.56 402.469 1239.35 408.296H1286.77V396.24C1286.65 307.367 1286.65 218.507 1286.21 129.687C1286.21 121.355 1288.26 117.511 1296.61 115.328C1320.6 109.045 1343.68 107.813 1367.73 117.029C1380.62 121.971 1395.67 121.261 1410.45 123.19C1407.19 140.014 1403.48 159.115 1399.73 178.631C1386.27 186.126 1370.46 188.21 1355.52 184.457C1348.21 182.689 1339.77 184.685 1332 185.931C1319.52 187.927 1307.14 190.713 1293.54 193.405V411.015C1304.79 411.35 1316.31 411.015 1327.74 412.274C1333.76 412.903 1339.38 416.52 1345.38 418.007C1351.38 419.493 1357.96 421.114 1364.14 420.833C1373.77 420.391 1381.55 422.253 1387.78 430.209C1392.82 436.719 1399.42 440.121 1408.32 439.277C1419.64 438.192 1425.06 447.81 1431.64 454.427C1439.89 462.732 1446.82 472.362 1455.03 480.721C1458.46 483.903 1462.74 486.005 1467.36 486.762C1474.83 487.857 1481.64 491.673 1486.47 497.477C1505.4 518.909 1525.58 539.295 1544.34 560.874C1553.4 571.282 1561.42 581.649 1577.05 580.886C1578.87 580.805 1581.17 583.19 1582.64 584.904C1608.31 615.23 1633.72 645.77 1659.57 675.988C1666.05 683.556 1673.81 690.039 1681 697.018V699C1675.12 699 1669.25 698.88 1663.37 698.88H511.908C486.348 698.88 460.788 698.915 435.228 698.987L435 696.91ZM1190.55 320.52L1187.31 320.614C1187.31 348.475 1187.2 376.336 1187.54 404.197C1187.54 406.126 1190.94 409.635 1192.79 409.662C1200.82 409.796 1209.01 408.912 1217.3 408.322C1215.09 375.894 1207.91 346.72 1190.59 320.52H1190.55Z" fill="#FFF5D0"/>
</mask>
<g mask="url(#mask0_0_1)">
<rect y="2" width="1512" height="699" fill="#FFF5D0"/>
</g>
<defs>
<linearGradient id="paint0_linear_0_1" x1="204" y1="793.5" x2="1158.5" y2="-145" gradientUnits="userSpaceOnUse">
<stop offset="0.363086" stop-color="#FFDD9B"/>
<stop offset="1" stop-color="#FFE586"/>
</linearGradient>
</defs>
</svg>
