<svg width="400" height="343" viewBox="0 0 400 343" fill="none" xmlns="http://www.w3.org/2000/svg">
<path d="M400 72.8736C398.686 74.2755 397.29 75.5984 395.819 76.8356C389.023 81.841 380.863 84.6624 372.424 84.9252C358.304 85.522 344.467 83.3836 330.745 80.4494C329.192 79.9565 327.516 80.0176 326.003 80.6223C324.49 81.227 323.233 82.3378 322.449 83.7649C319.795 87.9713 316.881 92.0075 313.722 95.8497C307.218 103.26 301.842 103.276 294.823 96.3139C292.163 93.7868 289.664 91.096 287.34 88.2573C286.162 86.7322 284.769 84.2124 285.3 82.8531C285.83 81.4938 288.618 80.5986 290.476 80.2008C294.309 79.4051 298.241 79.1232 302.091 78.543C303.385 78.3441 304.665 78.0616 305.923 77.6976C309.01 76.8687 311.515 75.3602 312.145 71.9287C312.776 68.4972 310.851 66.3587 308.412 64.701C298.971 58.3354 289.265 52.3509 279.99 45.7698C268.077 37.332 256.977 27.9161 249.129 15.3505C246.944 11.5051 245.096 7.47845 243.604 3.31545C243.239 2.42028 243.853 1.12725 244.035 0C245.097 0.232082 246.424 0.116029 247.221 0.71281C260.146 10.4602 275.261 15.881 289.879 22.2632C300.879 27.0541 308.893 35.0443 315.746 44.5099C317.753 47.2618 319.944 49.8644 322.051 52.5333C324.158 55.2023 326.614 55.4177 329.667 53.8595C332.348 52.2862 335.304 51.2344 338.377 50.7595C343.255 50.3617 346.673 53.4616 349.262 57.3904C350.075 58.6993 351.224 59.7674 352.589 60.4843C353.954 61.2012 355.486 61.541 357.027 61.4684C361.441 61.8708 365.782 62.8575 369.935 64.4026C375.494 66.2924 380.753 69.1105 386.361 70.8346C390.443 72.0447 394.84 72.1442 400 72.8736Z" fill="#181B64"/>
<path d="M130.878 103.856C131.188 104.446 131.46 105.055 131.691 105.68C133.948 113.958 138.848 121.274 145.645 126.518C146.946 127.514 148.003 128.793 148.736 130.257C149.469 131.722 149.859 133.334 149.876 134.972C150.141 143.261 150.539 151.433 151.004 159.672C151.286 164.761 152.049 165.027 157.159 165.739C159.826 166.291 162.594 166.076 165.143 165.12C167.692 164.163 169.918 162.504 171.561 160.335C174.548 156.788 178.58 154.069 182.197 151.069C185.814 148.068 190.692 145.847 191.422 140.094C192.292 142.762 192.505 145.6 192.043 148.368C191.581 151.136 190.457 153.751 188.767 155.992C183.707 163.187 176.688 167.845 168.857 171.492C167.604 171.849 166.44 172.465 165.439 173.299C161.341 178.371 155.849 180.559 149.726 182.167C146.142 183.096 143.007 185.599 139.539 187.141C136.459 188.514 133.267 189.624 129.998 190.456C129.301 190.519 128.597 190.421 127.944 190.168C127.291 189.915 126.705 189.514 126.232 188.997C123.743 185.549 121.619 181.836 118.782 177.31C123.046 176.846 126.348 176.365 129.65 176.133C135.723 175.719 137.133 172.818 134.628 167.43C133.579 164.784 133.467 161.859 134.312 159.142C138.079 147.538 135.756 137.459 128.621 127.761C123.08 120.102 124.025 113.455 130.878 103.856Z" fill="#181B64"/>
<path d="M229.501 244.647C226.78 248.941 223.959 249.488 220.491 249.786C207.815 250.864 194.691 249.786 183.043 256.417C180.289 258.075 176.904 258.97 176.406 263.048C176.406 263.612 174.581 264.225 173.536 264.407C170.211 265.065 166.847 265.503 163.464 265.717C160.858 265.597 158.266 265.258 155.716 264.706C156.197 263.645 156.264 263.23 156.512 263.048C161.49 258.373 160.76 254.378 154.123 251.925C145.91 248.891 137.614 246.089 129.351 243.139C127.927 242.631 126.602 241.879 125.436 240.917C139.091 240.32 152.779 239.061 163.597 250.002C167.679 254.113 172.806 253.549 177.568 251.659C188.912 247.113 200.898 244.366 213.091 243.52C218.201 243.089 223.428 244.183 229.501 244.647Z" fill="#181B64"/>
<path d="M61.49 248.576C54.5545 253.997 48.3657 258.357 40.1195 257.577C37.1163 257.296 35.8719 258.058 34.9925 261.191C34.3123 263.645 32.1387 266.91 30.0149 267.441C28.4585 267.68 26.8663 267.415 25.4718 266.684C24.0773 265.953 22.9539 264.795 22.2665 263.379L31.2759 257.229L30.9441 255.704C28.8535 254.842 26.7297 254.046 24.6723 253.085C17.8198 249.935 10.9341 246.835 4.18119 243.487C2.67894 242.496 1.51989 241.066 0.862791 239.392C11.0669 240.652 21.6194 239.873 29.8822 247.25C31.8235 248.99 33.549 249.305 35.706 247.548C37.863 245.791 39.8208 245.36 41.8948 247.797C42.7273 248.373 43.7439 248.621 44.7486 248.493C49.9253 248.609 55.102 248.576 61.49 248.576Z" fill="#181B64"/>
<path d="M31.641 320.488C32.3544 325.594 31.4916 329.307 28.223 331.96C25.4355 334.231 22.0674 335.805 19.2135 338.027C17.7073 339.529 16.3769 341.197 15.2481 343L10.7516 341.806C10.7516 341.508 10.4862 341.143 10.5857 341.044C15.1651 336.22 12.2449 331.562 10.0382 327.086C9.09805 325.572 7.6878 324.408 6.02291 323.77C2.04082 322.113 0.315248 319.145 0 314.686C4.23459 316.424 8.3622 318.411 12.361 320.637C13.8709 321.566 14.5014 324.102 15.2978 326.008C17.9691 332.424 21.8351 333.02 26.2651 327.583C27.9409 325.577 29.4674 323.373 31.641 320.488Z" fill="#181B64"/>
</svg>
