<svg width="1061" height="77" viewBox="0 0 1061 77" fill="none" xmlns="http://www.w3.org/2000/svg">
<path d="M38.5 37H695.5" stroke="#181B64" stroke-width="3"/>
<path d="M717 37L992 37" stroke="#181B64" stroke-opacity="0.51" stroke-width="3" stroke-linecap="round" stroke-dasharray="15 15"/>
<circle cx="1022.5" cy="38.5" r="34" fill="#181B64" fill-opacity="0.51" stroke="#FFE586" stroke-width="9"/>
<path d="M1015.55 45.88V42.568L1023.14 31.72H1027.72V42.328H1029.69V45.88H1027.72V49H1023.62V45.88H1015.55ZM1023.91 36.232L1019.87 42.328H1023.91V36.232Z" fill="#FFE586"/>
<circle cx="695.5" cy="38.5" r="34" fill="#181B64" stroke="#FFE586" stroke-width="9"/>
<path d="M689.458 36.424C689.522 34.712 690.082 33.392 691.138 32.464C692.194 31.536 693.626 31.072 695.434 31.072C696.634 31.072 697.658 31.28 698.506 31.696C699.37 32.112 700.018 32.68 700.45 33.4C700.898 34.12 701.122 34.928 701.122 35.824C701.122 36.88 700.858 37.744 700.33 38.416C699.802 39.072 699.186 39.52 698.482 39.76V39.856C699.394 40.16 700.114 40.664 700.642 41.368C701.17 42.072 701.434 42.976 701.434 44.08C701.434 45.072 701.202 45.952 700.738 46.72C700.29 47.472 699.626 48.064 698.746 48.496C697.882 48.928 696.85 49.144 695.65 49.144C693.73 49.144 692.194 48.672 691.042 47.728C689.906 46.784 689.306 45.36 689.242 43.456H693.226C693.242 44.16 693.442 44.72 693.826 45.136C694.21 45.536 694.77 45.736 695.506 45.736C696.13 45.736 696.61 45.56 696.946 45.208C697.298 44.84 697.474 44.36 697.474 43.768C697.474 43 697.226 42.448 696.73 42.112C696.25 41.76 695.474 41.584 694.402 41.584H693.634V38.248H694.402C695.218 38.248 695.874 38.112 696.37 37.84C696.882 37.552 697.138 37.048 697.138 36.328C697.138 35.752 696.978 35.304 696.658 34.984C696.338 34.664 695.898 34.504 695.338 34.504C694.73 34.504 694.274 34.688 693.97 35.056C693.682 35.424 693.514 35.88 693.466 36.424H689.458Z" fill="#FFE586"/>
<circle cx="38.5" cy="38.5" r="34" fill="#181B64" stroke="#FFE586" stroke-width="9"/>
<circle cx="368.5" cy="38.5" r="34" fill="#181B64" stroke="#FFE586" stroke-width="9"/>
<path d="M35.1363 35.296V31.48H41.7843V49H37.5123V35.296H35.1363Z" fill="#FFE586"/>
<path d="M363.081 45.712C363.625 45.28 363.873 45.08 363.825 45.112C365.393 43.816 366.625 42.752 367.521 41.92C368.433 41.088 369.201 40.216 369.825 39.304C370.449 38.392 370.761 37.504 370.761 36.64C370.761 35.984 370.609 35.472 370.305 35.104C370.001 34.736 369.545 34.552 368.937 34.552C368.329 34.552 367.849 34.784 367.497 35.248C367.161 35.696 366.993 36.336 366.993 37.168H363.033C363.065 35.808 363.353 34.672 363.897 33.76C364.457 32.848 365.185 32.176 366.081 31.744C366.993 31.312 368.001 31.096 369.105 31.096C371.009 31.096 372.441 31.584 373.401 32.56C374.377 33.536 374.865 34.808 374.865 36.376C374.865 38.088 374.281 39.68 373.113 41.152C371.945 42.608 370.457 44.032 368.649 45.424H375.129V48.76H363.081V45.712Z" fill="#FFE586"/>
</svg>
