<svg width="47" height="712" viewBox="0 0 47 712" fill="none" xmlns="http://www.w3.org/2000/svg">
<path d="M24 20V488.5" stroke="#181B64" stroke-width="2" stroke-linecap="round"/>
<path d="M23 487L23 666" stroke="#181B64" stroke-opacity="0.4" stroke-width="2" stroke-linecap="round" stroke-dasharray="10 10"/>
<circle cx="24" cy="483" r="23" fill="#181B64"/>
<path d="M17.4584 480.424C17.5224 478.712 18.0824 477.392 19.1384 476.464C20.1944 475.536 21.6264 475.072 23.4344 475.072C24.6344 475.072 25.6584 475.28 26.5064 475.696C27.3704 476.112 28.0184 476.68 28.4504 477.4C28.8984 478.12 29.1224 478.928 29.1224 479.824C29.1224 480.88 28.8584 481.744 28.3304 482.416C27.8024 483.072 27.1864 483.52 26.4824 483.76V483.856C27.3944 484.16 28.1144 484.664 28.6424 485.368C29.1704 486.072 29.4344 486.976 29.4344 488.08C29.4344 489.072 29.2024 489.952 28.7384 490.72C28.2904 491.472 27.6264 492.064 26.7464 492.496C25.8824 492.928 24.8504 493.144 23.6504 493.144C21.7304 493.144 20.1944 492.672 19.0424 491.728C17.9064 490.784 17.3064 489.36 17.2424 487.456H21.2264C21.2424 488.16 21.4424 488.72 21.8264 489.136C22.2104 489.536 22.7704 489.736 23.5064 489.736C24.1304 489.736 24.6104 489.56 24.9464 489.208C25.2984 488.84 25.4744 488.36 25.4744 487.768C25.4744 487 25.2264 486.448 24.7304 486.112C24.2504 485.76 23.4744 485.584 22.4024 485.584H21.6344V482.248H22.4024C23.2184 482.248 23.8744 482.112 24.3704 481.84C24.8824 481.552 25.1384 481.048 25.1384 480.328C25.1384 479.752 24.9784 479.304 24.6584 478.984C24.3384 478.664 23.8984 478.504 23.3384 478.504C22.7304 478.504 22.2744 478.688 21.9704 479.056C21.6824 479.424 21.5144 479.88 21.4664 480.424H17.4584Z" fill="#FFE586"/>
<circle cx="24" cy="257" r="23" fill="#181B64"/>
<path d="M17.5805 263.712C18.1245 263.28 18.3725 263.08 18.3245 263.112C19.8925 261.816 21.1245 260.752 22.0205 259.92C22.9325 259.088 23.7005 258.216 24.3245 257.304C24.9485 256.392 25.2605 255.504 25.2605 254.64C25.2605 253.984 25.1085 253.472 24.8045 253.104C24.5005 252.736 24.0445 252.552 23.4365 252.552C22.8285 252.552 22.3485 252.784 21.9965 253.248C21.6605 253.696 21.4925 254.336 21.4925 255.168H17.5325C17.5645 253.808 17.8525 252.672 18.3965 251.76C18.9565 250.848 19.6845 250.176 20.5805 249.744C21.4925 249.312 22.5005 249.096 23.6045 249.096C25.5085 249.096 26.9405 249.584 27.9005 250.56C28.8765 251.536 29.3645 252.808 29.3645 254.376C29.3645 256.088 28.7805 257.68 27.6125 259.152C26.4445 260.608 24.9565 262.032 23.1485 263.424H29.6285V266.76H17.5805V263.712Z" fill="#FFE586"/>
<circle cx="24" cy="23" r="23" fill="#181B64"/>
<path d="M19.6363 19.296V15.48H26.2843V33H22.0123V19.296H19.6363Z" fill="#FFE586"/>
<circle cx="23" cy="689" r="23" fill="#181B64" fill-opacity="0.4"/>
<path d="M15.5549 694.88V691.568L23.1389 680.72H27.7229V691.328H29.6909V694.88H27.7229V698H23.6189V694.88H15.5549ZM23.9069 685.232L19.8749 691.328H23.9069V685.232Z" fill="#FFDB5C"/>
</svg>
