<svg width="1512" height="1014" viewBox="0 0 1512 1014" fill="none" xmlns="http://www.w3.org/2000/svg">
<g clip-path="url(#clip0_7_11)">
<path d="M-416.852 713.06L-426.214 713.01C-452.928 725.197 -468.13 742.066 -469.17 764.395C-469.542 772.025 -472.842 775.658 -485.102 773.04C-491.461 771.493 -498.244 770.982 -504.922 771.549C-511.601 772.116 -517.993 773.744 -523.601 776.307C-526.603 777.728 -530.282 778.295 -533.88 777.891C-537.478 777.487 -540.721 776.143 -542.941 774.137C-563.781 756.107 -590.084 760.23 -616.608 764.403L-616.992 836.741L-619 1214.63L1577.33 1217.2L1578.9 920.571L1579.25 854.793C1552.96 849.573 1527.65 848.188 1506.59 863.392C1500.27 867.902 1493.61 865.186 1486.68 864.562C1477.43 863.773 1468.28 858.798 1459.02 861.863C1433.17 870.353 1431.19 861.383 1431.27 846.4C1431.26 828.021 1404.98 806.823 1380.13 801.126C1344.38 793.023 1315.11 799.734 1290.1 818.26C1284.77 822.163 1283.43 831.524 1271.62 828.015C1266.47 826.701 1261.85 824.547 1258.15 821.737C1254.45 818.927 1251.78 815.543 1250.36 811.872C1241.88 791.381 1219.67 780.95 1189.28 778.67C1164.92 776.779 1146.42 784.211 1132.6 797.028C1123.56 805.404 1114.85 807.476 1100.31 803.519C1052.32 790.45 1023.25 794.431 994.208 822.202C978.945 836.772 963.989 828.065 947.955 828.184C931.92 828.303 932.968 818.43 930.535 811.5C914.449 765.902 875.898 744.357 809.765 745.691C780.717 746.277 756.596 755.976 737.573 770.552C719.364 784.571 700.951 788.251 674.863 779.842C642.923 769.539 608.3 778.85 590.638 800.836C583.959 809.097 576.324 810.205 563.577 808.988C541.472 806.931 519.354 807.349 500.87 817.589C494.216 821.281 489.527 822.762 483.624 816.885C465.365 798.639 434.285 799.98 408.185 793.792C405.46 793.165 399.888 794.462 399.412 793.745C388.046 775.51 357.836 772.823 340.621 759.203C311.33 736.074 266.874 736.756 239.431 761.217C229.506 770.073 219.856 775.638 203.3 776.724C183.316 778.022 172.032 792.716 150.904 794.16C140.654 794.846 133.548 793.379 123.718 791.106C95.5922 784.626 73.88 771.135 47.787 763.543C27.3986 757.589 -4.99486 763.416 -22.3548 784.076C-25.955 789 -30.3974 793.604 -35.5866 797.79C-48.9804 807.342 -59.0338 805.604 -66.3409 793.414C-94.9069 744.866 -167.386 740.524 -212.47 769.103C-220.31 774.09 -224.324 773.277 -233.9 771.848C-263.143 767.456 -285.419 756.08 -307.467 743.379L-317.012 743.124C-331.491 748.714 -349.459 745.07 -363.758 751.631C-364.668 751.936 -365.661 752.102 -366.673 752.12C-367.684 752.137 -368.691 752.005 -369.624 751.732C-370.558 751.459 -371.397 751.051 -372.086 750.536C-372.776 750.021 -373.299 749.41 -373.621 748.745C-382.756 733.662 -405.017 726.447 -416.852 713.06Z" fill="#41448F"/>
<path d="M990.496 738.366C991.69 746.657 985.756 749.915 980.04 753.463C975.155 756.468 967.087 757.083 966.906 764.324C966.617 773.483 977.76 768.994 982.319 775.583C966.544 783.91 966.183 807.913 944.583 810.556C943.172 810.556 941.182 814.176 941.182 816.385C941.182 832.966 935.574 844.008 918.063 849.982C904.64 854.579 895.884 867.432 879.458 870.545C857.75 874.709 838.249 888.647 814.912 890.095C811.077 890.349 807.351 897.336 804.058 901.536C796.822 911.202 788.609 918.949 775.44 917.429C773.374 916.916 771.2 917.051 769.214 917.815C767.227 918.579 765.523 919.936 764.332 921.701C754.346 940.635 735.388 942.663 717.804 948.383C713.897 949.686 713.137 947.731 710.568 946.754C697.869 941.613 682.962 941.106 674.388 950.664C659.916 966.593 637.592 961.525 622.505 973.87C603.727 989.329 575.253 980.097 557.091 1000.7C550.868 1007.94 534.731 1006.67 523.009 1007.94C518.342 1008.44 514.724 1007.94 514 1013.51C523.624 1013.51 533.248 1013.98 542.944 1013.98L1512.04 1014.24V949.071C1489.75 945.813 1466.56 945.451 1445.39 938.572C1423.29 931.331 1400.64 927.059 1378.35 921.375C1350.6 914.134 1322.52 906.64 1297.02 895.164C1275.31 885.461 1252.66 878.727 1231.17 868.807C1219.12 863.232 1204.76 855.34 1190.9 856.679C1177.04 858.019 1173.5 850.85 1172.56 840.931C1172.3 835.816 1170.92 830.821 1168.52 826.298C1166.12 821.775 1162.75 817.834 1158.66 814.755C1152.33 810.049 1151.68 805.886 1152.69 798.283C1157.18 764.903 1163.15 731.56 1160.94 697.601C1153.71 674.792 1153.42 651.151 1152.55 627.51C1151.79 608.323 1165.36 592.501 1164.81 573.929C1164.23 554.56 1176.72 545.582 1190.14 536.495C1190.86 520.71 1203.53 510.464 1208.59 496.671C1206.06 494.897 1205.77 492.399 1208.59 491.24C1213.76 488.995 1219.08 488.525 1223.06 494.064C1230.08 494.643 1223.06 505.215 1234.21 504.925C1234.82 481.791 1230.59 459.127 1226.21 436.5C1214.63 429.513 1217.2 416.95 1217.09 407.211C1217.09 388.748 1207.14 379.154 1191.95 374.157C1190.81 373.787 1189.78 373.547 1188.85 373.403C1174.7 371.215 1154.76 371.534 1140.61 369.342V369.342C1129.75 367.677 1123.28 349.286 1127.58 337.085C1133.77 319.599 1126.86 297.623 1113.11 291.287C1102.58 286.4 1085.22 296.102 1073.31 309.027C1064.45 318.802 1064.7 326.296 1071.11 336.035C1076.79 344.651 1073.1 356.49 1081.45 364.419C1052 370.175 1047.05 395.337 1037.39 416.624C1037.1 429.875 1022.15 430.056 1017.23 439.179C1017.88 458.983 1000.16 467.418 990.677 480.777C982.536 492.254 975.011 489.647 973.346 475.093C972.842 474.032 972.122 473.087 971.232 472.32C970.341 471.553 969.301 470.981 968.177 470.64C967.053 470.3 965.87 470.197 964.704 470.341C963.538 470.484 962.415 470.87 961.407 471.473C955.871 474.007 961.081 478.714 959.417 482.334C961.443 485.411 963.035 489.104 960.104 491.892C952.651 498.734 954.062 505.396 960.104 511.767C970.705 523.099 969.149 537.11 969.909 550.94C974.793 589.605 980.076 628.234 984.381 667.009C986.878 690.722 991.943 714.291 990.496 738.366ZM976.024 529.725C971.61 520.674 970.199 514.121 984.49 517.488C987.71 518.212 996.031 516.329 994.403 513.867C985.937 501.775 999.107 503.332 1002.69 500.689C1011.16 495.067 1019.98 489.988 1029.1 485.484C1034.78 474.116 1047.19 469.482 1054.93 460.431C1059.2 469.518 1061.88 479.22 1056.16 489.394C1053.81 501.956 1066.04 518.357 1046.29 526.539C1045.06 527.045 1045.27 532.222 1045.67 535.083C1046.13 537.112 1046.02 539.231 1045.33 541.197C1044.65 543.163 1043.42 544.896 1041.8 546.197C1017.34 566.254 1004.86 595.325 985.792 619.509L978.556 558.325C977.76 548.84 976.892 539.282 975.987 529.725H976.024ZM1113.51 705.746C1113.51 726.165 1114.05 746.548 1114.02 766.967C1114.02 796.328 1114.02 796.364 1085.07 793.504C1074.98 792.49 1064.92 790.753 1055.04 789.051C1029.72 784.67 1035.5 763.708 1034.82 746.403C1035.14 730.872 1037.35 715.449 1034.17 699.809C1025.23 656.365 1030.55 619.184 1081.2 604.666C1082.9 604.034 1084.46 603.102 1085.83 601.915C1090.17 598.62 1093.43 599.344 1095.49 604.376C1101.14 618.134 1108.99 631.348 1105.26 647.314C1104.32 651.296 1102.47 657.958 1104.17 659.225C1120.96 672.186 1109.64 690.541 1113.55 705.746H1113.51ZM1221.62 441.46C1223.03 458.874 1224.08 472.125 1225.23 485.411H1219.05C1222.56 471.98 1204.65 459.526 1221.8 441.424L1221.62 441.46ZM829.312 939.73C826.237 941.179 823.234 942.808 820.086 944.002C815.889 945.595 812.054 949.795 807.061 946.32C806.564 946.032 806.131 945.644 805.791 945.18C805.45 944.716 805.21 944.187 805.084 943.626C804.958 943.065 804.95 942.484 805.06 941.919C805.17 941.355 805.395 940.819 805.722 940.346C807.335 938.605 809.314 937.244 811.517 936.361C813.719 935.478 816.09 935.096 818.458 935.241C822.293 935.169 826.779 934.191 829.312 939.73Z" fill="#181B64"/>
<path d="M1511.68 844.108C1487.4 845.821 1468.22 856.866 1457.99 882.137C1453.64 892.876 1446.74 893.916 1437.29 895.935C1415.51 900.586 1392.23 898.781 1372.3 912.334C1368.31 915.026 1364.45 913.435 1360.3 912.793C1319.11 906.337 1312.99 916.862 1293 948.925C1282.94 965.11 1269.97 968.659 1259.75 953.208C1243.12 928.029 1220.5 923.684 1195.03 927.509C1185.6 929.277 1176.96 934.402 1170.42 942.103C1154.12 959.511 1125.13 956.36 1108.89 939.043C1075.85 904.012 1030.51 896.547 990.517 940.144C982.923 948.436 978.71 948.742 966.875 946.539C945.895 942.561 936.222 927.325 922.78 914.629C905.846 898.628 884.505 898.597 864.078 912.732C855.57 918.637 849.417 922.644 846.008 905.573C838.885 869.838 809.978 850.104 777.107 855.244C763.665 857.355 751.803 854.938 740.883 843.985C721.925 825.017 692.575 829.3 676.583 851.634C664.499 868.522 652.027 880.607 628.94 876.446C607.183 872.53 588.392 884.707 577.167 906.827C569.795 921.359 564.39 936.443 544.241 927.448C538.698 924.97 528.748 927.203 523.815 931.486C509.264 944.183 492.829 942.164 476.393 942.806C471.614 942.821 466.912 944.134 462.702 946.63C449.62 955.595 440.114 951.801 430.746 939.38C417.692 922.155 399.51 924.388 382.77 928.978C368.053 933.016 363.148 926.469 360.931 912.579C357.189 888.96 336.291 865.188 318.581 864.086C306.558 863.529 294.714 867.45 284.953 875.218C275.191 882.986 268.079 894.151 264.758 906.919C263.261 912.334 266.698 922.369 257.053 921.329C249.237 920.472 251.51 911.386 249.292 905.695C236.488 871.857 213.401 843.863 172.714 845.485C148.131 846.464 116.036 866.564 107.888 903.614C104.451 919.248 98.0211 923.379 84.5513 923.195C65.5385 922.92 50.3781 933.995 38.4881 949.323C28.4274 962.264 19.0871 964.62 3.20614 960.031C-19.1603 953.545 -39.2263 952.474 -51.3934 923.073C-60.2623 901.656 -100.09 905.94 -112.839 926.499C-121.486 940.451 -129.246 941.399 -139.834 930.721C-139.834 955.687 -139.557 980.621 -140 1005.56C-140 1012.16 -139.168 1014.98 -132.738 1013.6C-129.77 1013.3 -126.782 1013.3 -123.814 1013.6C416.029 1013.6 955.881 1013.73 1495.74 1014C1509.6 1014 1512.23 1010.15 1511.98 995.643C1511.15 945.193 1511.68 894.65 1511.68 844.108Z" fill="#181B64"/>
</g>
<defs>
<clipPath id="clip0_7_11">
<rect width="1512" height="1014" fill="white"/>
</clipPath>
</defs>
</svg>
