<svg width="1512" height="982" viewBox="0 0 1512 982" fill="none" xmlns="http://www.w3.org/2000/svg">
<g clip-path="url(#clip0_102_3)">
<rect width="1512" height="982" fill="#FAFAFA"/>
<path d="M-505.555 620.303C-471.856 622.327 -445.235 635.374 -431.04 665.228C-425 677.914 -415.421 679.143 -402.303 681.528C-372.066 687.022 -339.751 684.889 -312.092 700.9C-306.552 704.081 -301.205 702.201 -295.434 701.442C-238.269 693.816 -229.767 706.249 -202.03 744.126C-188.066 763.245 -170.062 767.438 -155.867 749.186C-132.785 719.441 -101.394 714.309 -66.0405 718.826C-52.9554 720.915 -40.9576 726.97 -31.8795 736.066C-9.25935 756.631 30.9798 752.908 53.5229 732.452C99.3787 691.069 162.315 682.251 217.826 733.753C228.367 743.548 234.214 743.909 250.641 741.307C279.762 736.608 293.188 718.61 311.846 703.611C335.351 684.708 364.973 684.672 393.325 701.37C405.135 708.345 413.675 713.08 418.407 692.913C428.293 650.699 468.417 627.387 514.042 633.459C532.7 635.953 549.165 633.097 564.322 620.159C590.635 597.751 631.374 602.81 653.571 629.194C670.344 649.145 687.655 663.421 719.7 658.505C749.899 653.879 775.981 668.264 791.562 694.395C801.795 711.562 809.296 729.38 837.263 718.754C844.957 715.827 858.768 718.465 865.615 723.525C885.812 738.524 908.625 736.138 931.437 736.897C938.07 736.914 944.597 738.466 950.441 741.415C968.598 752.005 981.794 747.523 994.796 732.85C1012.92 712.502 1038.15 715.14 1061.39 720.561C1081.81 725.332 1088.62 717.598 1091.7 701.189C1096.89 673.288 1125.9 645.205 1150.48 643.904C1167.17 643.246 1183.61 647.877 1197.16 657.054C1210.71 666.231 1220.58 679.42 1225.19 694.503C1227.27 700.9 1222.5 712.755 1235.89 711.526C1246.73 710.514 1243.58 699.78 1246.66 693.057C1264.43 653.084 1296.47 620.014 1352.95 621.93C1387.07 623.086 1431.62 646.831 1442.93 690.599C1447.7 709.068 1456.62 713.947 1475.32 713.73C1501.71 713.405 1522.75 726.488 1539.26 744.596C1553.22 759.884 1566.18 762.667 1588.23 757.245C1619.27 749.583 1647.12 748.318 1664.01 713.586C1676.32 688.287 1731.6 693.346 1749.3 717.634C1761.3 734.115 1772.07 735.235 1786.77 722.621C1786.77 752.113 1786.38 781.569 1787 811.025C1787 818.831 1785.85 822.157 1776.92 820.53C1772.8 820.168 1768.65 820.168 1764.53 820.53C1015.22 820.53 265.901 820.687 -483.435 821C-502.67 821 -506.325 816.446 -505.978 799.315C-504.824 739.717 -505.555 680.01 -505.555 620.303Z" fill="#41448F" fill-opacity="0.4"/>
<path d="M-89.934 650H-98.1268C-121.447 668.396 -134.672 693.686 -135.479 727.012C-135.769 738.4 -138.64 743.847 -149.381 740.038C-154.952 737.779 -160.89 737.071 -166.732 737.969C-172.573 738.868 -178.16 741.349 -183.055 745.218C-185.676 747.361 -188.893 748.236 -192.043 747.662C-195.194 747.088 -198.038 745.109 -199.989 742.133C-218.31 715.395 -241.308 721.756 -264.5 728.193V836.131L-282 1166.5H1657.5V943.804V845.653C1634.47 838.074 1612.31 836.208 1593.96 859.06C1588.44 865.839 1582.6 861.84 1576.54 860.964C1568.44 859.86 1560.41 852.509 1552.32 857.156C1529.74 870.029 1527.96 856.66 1527.96 834.303C1527.87 806.881 1504.77 775.459 1483 767.156C1451.68 755.349 1426.1 765.594 1404.3 793.436C1399.65 799.301 1398.52 813.279 1388.17 808.138C1383.66 806.217 1379.6 803.04 1376.35 798.876C1373.1 794.712 1370.75 789.684 1369.49 784.219C1361.98 753.711 1342.49 738.324 1315.88 735.163C1294.56 732.535 1278.4 743.77 1266.37 763.004C1258.5 775.573 1250.89 778.734 1238.15 772.945C1196.09 753.825 1170.67 759.995 1145.38 801.663C1132.09 823.525 1118.96 810.651 1104.93 810.956C1090.9 811.261 1091.77 796.521 1089.61 786.199C1075.32 718.29 1041.49 686.449 983.621 688.963C958.204 690.068 937.141 704.731 920.562 726.631C904.692 747.693 888.597 753.33 865.728 740.99C837.73 725.869 807.474 740.038 792.121 772.983C786.315 785.361 779.638 787.075 768.478 785.361C749.125 782.467 729.771 783.267 713.644 798.692C707.838 804.252 703.741 806.5 698.548 797.778C682.485 770.698 655.294 772.945 632.425 763.918C630.038 763.004 625.167 764.985 624.748 763.918C614.717 736.8 588.267 733.03 573.139 712.844C547.4 678.565 508.5 679.936 484.598 716.652C475.954 729.945 467.535 738.324 453.053 740.076C435.57 742.171 425.765 764.185 407.282 766.508C398.315 767.613 392.09 765.48 383.478 762.166C358.835 752.721 339.772 732.763 316.903 721.642C299.033 712.92 270.713 721.87 255.618 752.835C252.49 760.21 248.624 767.115 244.102 773.402C232.426 787.761 223.62 785.247 217.169 767.118C191.946 694.905 128.499 689.001 89.18 732.002C82.3419 739.505 78.826 738.324 70.4396 736.267C44.8289 729.945 25.2821 713.148 5.92892 694.371L-2.4252 694.067C-15.0693 702.522 -30.8099 697.228 -43.2927 707.131C-44.0872 707.593 -44.956 707.849 -45.8411 707.883C-46.7263 707.917 -47.6073 707.728 -48.4255 707.328C-49.2437 706.927 -49.9802 706.326 -50.5858 705.563C-51.1913 704.8 -51.6521 703.893 -51.9372 702.903C-60.001 680.47 -79.5155 669.881 -89.934 650Z" fill="#181B64"/>
</g>
<defs>
<clipPath id="clip0_102_3">
<rect width="1512" height="982" fill="white"/>
</clipPath>
</defs>
</svg>
