<svg width="1246" height="595" viewBox="0 0 1246 595" fill="none" xmlns="http://www.w3.org/2000/svg">
<mask id="mask0_49_2" style="mask-type:alpha" maskUnits="userSpaceOnUse" x="0" y="0" width="1246" height="595">
<path d="M0 592.91C3.35433 591.334 6.62302 589.581 9.79259 587.66C33.2227 571.787 56.6796 555.914 79.9088 539.827C91.5189 531.791 102.973 523.499 114.27 514.953C122.964 508.35 131.578 504.934 141.518 512.194C148.015 516.949 154.325 514.672 159.509 510.372C170.909 500.916 181.774 490.816 192.906 481.038C194.929 479.27 197.314 476.296 199.39 476.43C218.439 477.556 230.201 463.438 244.843 455.361C262.406 445.69 279.955 435.979 297.652 426.549C304.752 422.771 311.048 425.584 316.661 430.42C322.274 435.255 326.989 440.747 336.755 440.559C342.033 440.466 348.41 449.427 352.657 455.441C362.771 469.747 365.102 471.18 379.623 460.544C391.492 451.838 401.607 440.774 413.114 431.465C427.555 419.731 442.479 408.546 457.482 397.536C459.934 395.728 464.315 394.616 467.088 395.487C486.418 401.541 501.369 392.272 515.957 382.092C545.63 361.33 574.981 340.073 604.841 319.592C609.423 316.458 616.054 315.373 621.814 315.092C633.054 314.569 644.467 317.262 654.796 309.586C657.582 307.51 662.753 308.528 666.853 308.314C682.633 307.443 698.521 307.457 714.168 305.635C729.587 303.8 735.87 294.919 734.263 278.765C731.758 253.798 728.65 228.897 725.769 203.97C725.666 202.94 725.487 201.919 725.234 200.916C723.331 193.589 726.747 185.19 719.165 178.761C716.74 176.698 717.424 170.121 717.825 165.728C719.473 147.859 721.844 130.058 723.264 112.149C723.652 107.179 722.571 102.205 720.156 97.8437C706.974 75.9568 693.016 54.5521 679.793 32.692C678.213 30.0131 679.351 25.6866 679.499 22.1236C679.686 17.4221 679.914 12.7473 680.57 8.03239C680.946 5.35345 681.629 0.933213 683.25 0.410821C684.822 -0.0105183 686.464 -0.109044 688.075 0.121164C689.687 0.351373 691.235 0.905546 692.627 1.75029C694.395 2.94241 694.516 6.85366 694.998 9.62636C695.829 14.3681 694.998 20.0474 697.249 23.7845C706.626 38.8669 716.432 53.7484 727.163 67.8797C730.967 72.8759 737.88 75.5013 742.595 78.6892C744.832 67.7726 745.984 57.9677 749.213 48.8995C750.218 46.0866 757.103 43.3273 760.814 43.8765C773.688 45.7518 780.078 58.1284 775.55 70.6659C774.21 74.1753 772.255 77.3632 771.786 83.4577C776.769 81.0735 783.494 79.9618 786.388 76.0371C794.504 64.6307 801.874 52.7113 808.451 40.3537C809.925 37.6748 807.982 33.2948 808.237 29.7452C808.424 26.9457 808.813 23.5166 810.528 21.7084C811.774 20.3689 816.208 20.0072 817.628 21.1726C820.079 23.1881 821.669 26.0622 822.075 29.2094C823.107 54.3243 812.108 74.8316 796.622 93.5037C792.456 98.5267 792.014 103.617 792.376 110.475C793.246 127.526 791.532 144.725 790.808 161.87C790.71 162.561 790.412 163.208 789.951 163.732C769.857 188.713 782.476 213.466 789.951 238.541C794.774 254.709 798.19 271.291 802.008 287.753C803.213 293.017 803.562 298.469 804.352 304.296H851.775V292.24C851.654 203.367 851.654 114.507 851.212 25.6865C851.212 17.3551 853.262 13.5108 861.608 11.3275C885.6 5.04541 908.682 3.81312 932.728 13.0287C945.616 17.9713 960.673 17.2613 975.449 19.1902C972.194 36.0139 968.483 55.1147 964.732 74.6307C951.274 82.1262 935.465 84.2099 920.524 80.4574C913.21 78.6893 904.77 80.6851 897 81.9308C884.515 83.9266 872.137 86.7126 858.54 89.405V307.015C869.793 307.35 881.313 307.015 892.74 308.274C898.755 308.903 904.382 312.52 910.383 314.007C916.385 315.493 922.962 317.114 929.138 316.833C938.77 316.391 946.553 318.253 952.783 326.209C957.82 332.719 964.424 336.121 973.319 335.277C984.639 334.192 990.064 343.81 996.642 350.427C1004.89 358.732 1011.82 368.362 1020.03 376.721C1023.46 379.903 1027.74 382.005 1032.36 382.762C1039.83 383.857 1046.64 387.673 1051.47 393.477C1070.4 414.909 1090.58 435.295 1109.34 456.874C1118.4 467.282 1126.42 477.649 1142.05 476.886C1143.87 476.805 1146.17 479.19 1147.64 480.904C1173.31 511.23 1198.72 541.77 1224.57 571.988C1231.05 579.556 1238.81 586.039 1246 593.018V595C1240.12 595 1234.25 594.88 1228.37 594.88H76.9078C51.3478 594.88 25.7877 594.915 0.227632 594.987L0 592.91ZM755.549 216.52L752.307 216.614C752.307 244.475 752.2 272.336 752.535 300.197C752.535 302.126 755.938 305.635 757.786 305.662C765.824 305.796 774.009 304.912 782.302 304.322C780.091 271.894 772.911 242.72 755.59 216.52H755.549Z" fill="#FFF5D0"/>
</mask>
<g mask="url(#mask0_49_2)">
<rect x="-435" y="-102" width="1512" height="699" fill="#FFF5D0"/>
</g>
</svg>
