<svg width="999" height="725" viewBox="0 0 999 725" fill="none" xmlns="http://www.w3.org/2000/svg">
<path d="M476.496 448.366C477.69 456.657 471.756 459.915 466.04 463.463C461.155 466.468 453.087 467.083 452.906 474.324C452.617 483.483 463.76 478.994 468.319 485.583C452.544 493.91 452.183 517.913 430.583 520.556C429.172 520.556 427.182 524.176 427.182 526.385C427.182 542.966 421.574 554.008 404.063 559.982C390.64 564.579 381.884 577.432 365.458 580.545C343.75 584.709 324.249 598.647 300.912 600.095C297.077 600.349 293.351 607.336 290.058 611.536C282.822 621.202 274.609 628.949 261.44 627.429C259.374 626.916 257.2 627.051 255.214 627.815C253.227 628.579 251.523 629.936 250.332 631.701C240.346 650.635 221.388 652.663 203.804 658.383C199.897 659.686 199.137 657.731 196.568 656.754C183.869 651.613 168.963 651.106 160.388 660.664C145.916 676.593 123.592 671.525 108.505 683.87C89.7274 699.329 61.2534 690.097 43.0909 710.697C36.8679 717.938 20.7314 716.671 9.00891 717.938C4.34164 718.445 0.723608 717.938 0 723.513C9.62399 723.513 19.248 723.984 28.9443 723.984L998.036 724.237V659.071C975.749 655.813 952.557 655.451 931.392 648.572C909.286 641.331 886.637 637.059 864.35 631.375C836.599 624.134 808.523 616.64 783.016 605.164C761.308 595.461 738.659 588.727 717.168 578.807C705.12 573.232 690.756 565.34 676.899 566.679C663.042 568.019 659.496 560.85 658.556 550.931C658.296 545.816 656.918 540.821 654.517 536.298C652.116 531.775 648.752 527.834 644.662 524.755C638.331 520.049 637.679 515.886 638.693 508.283C643.179 474.903 649.149 441.56 646.942 407.601C639.706 384.792 639.416 361.151 638.548 337.51C637.788 318.323 651.356 302.501 650.813 283.929C650.234 264.56 662.716 255.582 676.139 246.495C676.863 230.71 689.526 220.464 694.591 206.671C692.059 204.897 691.769 202.399 694.591 201.24C699.765 198.995 705.084 198.525 709.063 204.064C716.082 204.643 709.063 215.215 720.207 214.925C720.822 191.791 716.589 169.127 712.211 146.5C700.633 139.513 703.202 126.95 703.094 117.211C703.094 98.7475 693.144 89.1535 677.948 84.1574C676.808 83.7872 675.784 83.5471 674.851 83.4029C660.695 81.215 640.763 81.5344 626.608 79.3424V79.3424C615.754 77.677 609.278 59.2856 613.583 47.0849C619.77 29.5986 612.86 7.62302 599.111 1.28739C588.583 -3.6001 571.216 6.10245 559.313 19.0271C550.449 28.8021 550.702 36.2962 557.106 46.035C562.786 54.6515 559.096 66.4902 567.453 74.4187C538.002 80.1751 533.046 105.337 523.386 126.624C523.096 139.875 508.154 140.056 503.233 149.179C503.884 168.983 486.156 177.418 476.677 190.777C468.536 202.254 461.011 199.647 459.346 185.093C458.842 184.032 458.122 183.087 457.232 182.32C456.342 181.553 455.301 180.981 454.177 180.64C453.053 180.3 451.87 180.197 450.704 180.341C449.538 180.484 448.415 180.87 447.407 181.473C441.871 184.007 447.081 188.714 445.417 192.334C447.443 195.411 449.035 199.104 446.104 201.892C438.651 208.734 440.062 215.396 446.104 221.767C456.705 233.099 455.149 247.11 455.909 260.94C460.794 299.605 466.076 338.234 470.381 377.009C472.878 400.722 477.943 424.291 476.496 448.366ZM462.024 239.725C457.61 230.674 456.199 224.121 470.49 227.488C473.71 228.212 482.031 226.329 480.403 223.867C471.937 211.775 485.107 213.332 488.689 210.689C497.162 205.067 505.984 199.988 515.1 195.484C520.781 184.116 533.191 179.482 540.933 170.431C545.202 179.518 547.88 189.22 542.163 199.394C539.812 211.956 552.041 228.357 532.286 236.539C531.056 237.045 531.273 242.222 531.671 245.083C532.134 247.112 532.017 249.231 531.332 251.197C530.648 253.163 529.423 254.896 527.8 256.197C503.342 276.254 490.859 305.325 471.792 329.509L464.556 268.325C463.76 258.84 462.892 249.282 461.987 239.725H462.024ZM599.509 415.746C599.509 436.165 600.052 456.548 600.016 476.967C600.016 506.328 600.016 506.364 571.071 503.504C560.977 502.49 550.919 500.753 541.042 499.051C515.715 494.67 521.504 473.708 520.817 456.403C521.142 440.872 523.349 425.449 520.166 409.809C511.229 366.365 516.548 329.184 567.2 314.666C568.896 314.034 570.465 313.102 571.831 311.915C576.173 308.62 579.429 309.344 581.491 314.376C587.135 328.134 594.987 341.348 591.26 357.314C590.319 361.296 588.474 367.958 590.175 369.225C606.962 382.186 595.638 400.541 599.545 415.746H599.509ZM707.616 151.46C709.027 168.874 710.076 182.125 711.234 195.411H705.047C708.557 181.98 690.648 169.526 707.797 151.424L707.616 151.46ZM315.312 649.73C312.237 651.179 309.234 652.808 306.086 654.002C301.889 655.595 298.054 659.795 293.061 656.32C292.564 656.032 292.131 655.644 291.791 655.18C291.45 654.716 291.21 654.187 291.084 653.626C290.958 653.065 290.95 652.484 291.06 651.919C291.17 651.355 291.395 650.819 291.723 650.346C293.335 648.605 295.314 647.244 297.517 646.361C299.719 645.478 302.09 645.096 304.458 645.241C308.293 645.169 312.78 644.191 315.312 649.73Z" fill="#181B64"/>
</svg>
