<svg width="1653" height="725" viewBox="0 0 1653 725" fill="none" xmlns="http://www.w3.org/2000/svg">
<path d="M1651.68 554.108C1627.4 555.821 1608.22 566.866 1597.99 592.137C1593.64 602.876 1586.74 603.916 1577.29 605.935C1555.51 610.586 1532.23 608.781 1512.3 622.334C1508.31 625.026 1504.45 623.435 1500.3 622.793C1459.11 616.337 1452.99 626.862 1433 658.925C1422.94 675.11 1409.97 678.659 1399.75 663.208C1383.12 638.029 1360.5 633.684 1335.03 637.509C1325.6 639.277 1316.96 644.402 1310.42 652.103C1294.12 669.511 1265.13 666.36 1248.89 649.043C1215.85 614.012 1170.51 606.547 1130.52 650.144C1122.92 658.436 1118.71 658.742 1106.88 656.539C1085.89 652.561 1076.22 637.325 1062.78 624.629C1045.85 608.628 1024.5 608.597 1004.08 622.732C995.57 628.637 989.417 632.644 986.008 615.573C978.885 579.838 949.978 560.104 917.107 565.244C903.665 567.355 891.803 564.938 880.883 553.985C861.925 535.017 832.575 539.3 816.583 561.634C804.499 578.522 792.027 590.607 768.94 586.446C747.183 582.53 728.392 594.707 717.167 616.827C709.795 631.359 704.39 646.443 684.241 637.448C678.698 634.97 668.748 637.203 663.815 641.486C649.264 654.183 632.829 652.164 616.393 652.806C611.614 652.821 606.912 654.134 602.702 656.63C589.62 665.595 580.114 661.801 570.746 649.38C557.692 632.155 539.51 634.388 522.77 638.978C508.053 643.016 503.148 636.469 500.931 622.579C497.189 598.96 476.291 575.188 458.581 574.086C446.558 573.529 434.714 577.45 424.953 585.218C415.191 592.986 408.079 604.151 404.758 616.919C403.261 622.334 406.698 632.369 397.053 631.329C389.237 630.472 391.51 621.386 389.292 615.695C376.488 581.857 353.401 553.863 312.714 555.485C288.131 556.464 256.036 576.564 247.888 613.614C244.451 629.248 238.021 633.379 224.551 633.195C205.538 632.92 190.378 643.995 178.488 659.323C168.427 672.264 159.087 674.62 143.206 670.031C120.84 663.545 100.774 662.474 88.6066 633.073C79.7377 611.656 39.9104 615.94 27.1612 636.499C18.514 650.451 10.7537 651.399 0.16638 640.721C0.16638 665.687 0.443435 690.621 -1.38879e-05 715.556C-1.38879e-05 722.164 0.831507 724.979 7.26151 723.602C10.2298 723.296 13.2176 723.296 16.1859 723.602C556.029 723.602 1095.88 723.735 1635.74 724C1649.6 724 1652.23 720.145 1651.98 705.643C1651.15 655.193 1651.68 604.65 1651.68 554.108Z" fill="#181B64"/>
<path d="M1130.5 448.366C1131.69 456.657 1125.76 459.915 1120.04 463.463C1115.16 466.468 1107.09 467.083 1106.91 474.324C1106.62 483.483 1117.76 478.994 1122.32 485.583C1106.54 493.91 1106.18 517.913 1084.58 520.556C1083.17 520.556 1081.18 524.176 1081.18 526.385C1081.18 542.966 1075.57 554.008 1058.06 559.982C1044.64 564.579 1035.88 577.432 1019.46 580.545C997.75 584.709 978.249 598.647 954.912 600.095C951.077 600.349 947.351 607.336 944.058 611.536C936.822 621.202 928.609 628.949 915.44 627.429C913.374 626.916 911.2 627.051 909.214 627.815C907.227 628.579 905.523 629.936 904.332 631.701C894.346 650.635 875.388 652.663 857.804 658.383C853.897 659.686 853.137 657.731 850.568 656.754C837.869 651.613 822.962 651.106 814.388 660.664C799.916 676.593 777.592 671.525 762.505 683.87C743.727 699.329 715.253 690.097 697.091 710.697C690.868 717.938 674.731 716.671 663.009 717.938C658.342 718.445 654.724 717.938 654 723.513C663.624 723.513 673.248 723.984 682.944 723.984L1652.04 724.237V659.071C1629.75 655.813 1606.56 655.451 1585.39 648.572C1563.29 641.331 1540.64 637.059 1518.35 631.375C1490.6 624.134 1462.52 616.64 1437.02 605.164C1415.31 595.461 1392.66 588.727 1371.17 578.807C1359.12 573.232 1344.76 565.34 1330.9 566.679C1317.04 568.019 1313.5 560.85 1312.56 550.931C1312.3 545.816 1310.92 540.821 1308.52 536.298C1306.12 531.775 1302.75 527.834 1298.66 524.755C1292.33 520.049 1291.68 515.886 1292.69 508.283C1297.18 474.903 1303.15 441.56 1300.94 407.601C1293.71 384.792 1293.42 361.151 1292.55 337.51C1291.79 318.323 1305.36 302.501 1304.81 283.929C1304.23 264.56 1316.72 255.582 1330.14 246.495C1330.86 230.71 1343.53 220.464 1348.59 206.671C1346.06 204.897 1345.77 202.399 1348.59 201.24C1353.76 198.995 1359.08 198.525 1363.06 204.064C1370.08 204.643 1363.06 215.215 1374.21 214.925C1374.82 191.791 1370.59 169.127 1366.21 146.5C1354.63 139.513 1357.2 126.95 1357.09 117.211C1357.09 98.7475 1347.14 89.1535 1331.95 84.1574C1330.81 83.7872 1329.78 83.5471 1328.85 83.4029C1314.7 81.215 1294.76 81.5344 1280.61 79.3424V79.3424C1269.75 77.677 1263.28 59.2856 1267.58 47.0849C1273.77 29.5986 1266.86 7.62302 1253.11 1.28739C1242.58 -3.6001 1225.22 6.10245 1213.31 19.0271C1204.45 28.8021 1204.7 36.2962 1211.11 46.035C1216.79 54.6515 1213.1 66.4902 1221.45 74.4187C1192 80.1751 1187.05 105.337 1177.39 126.624C1177.1 139.875 1162.15 140.056 1157.23 149.179C1157.88 168.983 1140.16 177.418 1130.68 190.777C1122.54 202.254 1115.01 199.647 1113.35 185.093C1112.84 184.032 1112.12 183.087 1111.23 182.32C1110.34 181.553 1109.3 180.981 1108.18 180.64C1107.05 180.3 1105.87 180.197 1104.7 180.341C1103.54 180.484 1102.41 180.87 1101.41 181.473C1095.87 184.007 1101.08 188.714 1099.42 192.334C1101.44 195.411 1103.03 199.104 1100.1 201.892C1092.65 208.734 1094.06 215.396 1100.1 221.767C1110.71 233.099 1109.15 247.11 1109.91 260.94C1114.79 299.605 1120.08 338.234 1124.38 377.009C1126.88 400.722 1131.94 424.291 1130.5 448.366ZM1116.02 239.725C1111.61 230.674 1110.2 224.121 1124.49 227.488C1127.71 228.212 1136.03 226.329 1134.4 223.867C1125.94 211.775 1139.11 213.332 1142.69 210.689C1151.16 205.067 1159.98 199.988 1169.1 195.484C1174.78 184.116 1187.19 179.482 1194.93 170.431C1199.2 179.518 1201.88 189.22 1196.16 199.394C1193.81 211.956 1206.04 228.357 1186.29 236.539C1185.06 237.045 1185.27 242.222 1185.67 245.083C1186.13 247.112 1186.02 249.231 1185.33 251.197C1184.65 253.163 1183.42 254.896 1181.8 256.197C1157.34 276.254 1144.86 305.325 1125.79 329.509L1118.56 268.325C1117.76 258.84 1116.89 249.282 1115.99 239.725H1116.02ZM1253.51 415.746C1253.51 436.165 1254.05 456.548 1254.02 476.967C1254.02 506.328 1254.02 506.364 1225.07 503.504C1214.98 502.49 1204.92 500.753 1195.04 499.051C1169.72 494.67 1175.5 473.708 1174.82 456.403C1175.14 440.872 1177.35 425.449 1174.17 409.809C1165.23 366.365 1170.55 329.184 1221.2 314.666C1222.9 314.034 1224.46 313.102 1225.83 311.915C1230.17 308.62 1233.43 309.344 1235.49 314.376C1241.14 328.134 1248.99 341.348 1245.26 357.314C1244.32 361.296 1242.47 367.958 1244.17 369.225C1260.96 382.186 1249.64 400.541 1253.55 415.746H1253.51ZM1361.62 151.46C1363.03 168.874 1364.08 182.125 1365.23 195.411H1359.05C1362.56 181.98 1344.65 169.526 1361.8 151.424L1361.62 151.46ZM969.312 649.73C966.237 651.179 963.234 652.808 960.086 654.002C955.889 655.595 952.054 659.795 947.061 656.32C946.564 656.032 946.131 655.644 945.791 655.18C945.45 654.716 945.21 654.187 945.084 653.626C944.958 653.065 944.95 652.484 945.06 651.919C945.17 651.355 945.395 650.819 945.722 650.346C947.335 648.605 949.314 647.244 951.517 646.361C953.719 645.478 956.09 645.096 958.458 645.241C962.293 645.169 966.779 644.191 969.312 649.73Z" fill="#181B64"/>
</svg>
