<svg width="2199" height="410" viewBox="0 0 2199 410" fill="none" xmlns="http://www.w3.org/2000/svg">
<g clip-path="url(#clip0_165_40)">
<path d="M-36.656 38.0475L-47.4651 38C-78.3072 49.451 -95.8573 65.3025 -97.0559 86.2875C-97.485 93.4583 -101.294 96.8721 -115.45 94.4109C-122.792 92.9558 -130.623 92.4755 -138.334 93.0075C-146.044 93.5395 -153.425 95.0695 -159.899 97.478C-163.365 98.8127 -167.613 99.345 -171.767 98.9652C-175.921 98.5854 -179.665 97.3225 -182.228 95.4367C-206.292 78.4906 -236.659 82.3633 -267.283 86.2828L-270 509.405L2265.81 512L2268 171.412C2237.65 166.505 2208.42 165.201 2184.11 179.487C2176.81 183.725 2169.12 181.173 2161.12 180.586C2150.45 179.843 2139.88 175.167 2129.18 178.046C2099.34 186.024 2097.05 177.593 2097.14 163.512C2097.13 146.24 2066.78 126.316 2038.09 120.96C1996.82 113.342 1963.03 119.646 1934.15 137.055C1928 140.723 1926.45 149.52 1912.81 146.221C1906.87 144.985 1901.53 142.961 1897.26 140.32C1892.99 137.678 1889.9 134.498 1888.27 131.048C1878.48 111.79 1852.84 101.986 1817.74 99.8405C1789.62 98.0616 1768.26 105.044 1752.31 117.089C1741.87 124.959 1731.82 126.906 1715.03 123.186C1659.61 110.9 1626.06 114.638 1592.52 140.735C1574.9 154.427 1557.63 146.243 1539.12 146.353C1520.61 146.464 1521.82 137.186 1519.01 130.672C1500.43 87.8182 1455.92 67.5678 1379.56 68.8153C1346.02 69.3635 1318.18 78.4768 1296.21 92.1738C1275.19 105.347 1253.93 108.804 1223.81 100.899C1186.94 91.2136 1146.96 99.9616 1126.57 120.622C1118.86 128.385 1110.04 129.426 1095.33 128.281C1069.81 126.346 1044.27 126.738 1022.93 136.359C1015.25 139.828 1009.83 141.219 1003.02 135.696C981.934 118.547 946.05 119.805 915.915 113.987C912.77 113.397 906.336 114.616 905.787 113.942C892.662 96.8044 857.781 94.2762 837.904 81.4747C804.084 59.7359 752.756 60.3738 721.074 83.3599C709.615 91.6816 698.474 96.9103 679.36 97.9297C656.286 99.1476 643.26 112.956 618.867 114.312C607.032 114.956 598.827 113.576 587.478 111.439C555.004 105.347 529.934 92.6667 499.807 85.5295C476.267 79.9325 438.867 85.4055 418.826 104.82C414.67 109.447 409.541 113.774 403.55 117.707C388.087 126.683 376.48 125.049 368.042 113.593C335.055 67.9649 251.372 63.8787 199.323 90.7334C190.271 95.4194 185.637 94.6553 174.581 93.3113C140.818 89.1807 115.097 78.4884 89.6396 66.5499L78.619 66.3096C52.5 66.3096 41.1573 68.1359 24.6483 74.3005C23.5982 74.5869 22.4509 74.7434 21.283 74.7597C20.1151 74.776 18.9535 74.6516 17.8756 74.3948C16.7978 74.138 15.8286 73.7548 15.0327 73.2707C14.2368 72.7866 13.6326 72.2129 13.2605 71.5877C2.7123 57.4118 -22.991 50.6298 -36.656 38.0475Z" fill="#41448F"/>
<path d="M2198.57 78.3635C2166.26 80.8205 2140.73 96.659 2127.11 132.9C2121.32 148.3 2112.13 149.792 2099.55 152.688C2070.56 159.357 2039.57 156.768 2013.04 176.204C2007.73 180.065 2002.6 177.784 1997.07 176.862C1942.24 167.605 1934.09 182.697 1907.49 228.678C1894.1 251.888 1876.83 256.977 1863.22 234.821C1841.08 198.712 1810.98 192.481 1777.08 197.966C1764.53 200.501 1753.02 207.851 1744.32 218.894C1722.62 243.859 1684.03 239.34 1662.41 214.507C1618.44 164.27 1558.08 153.564 1504.85 216.086C1494.74 227.976 1489.13 228.415 1473.38 225.256C1445.45 219.552 1432.57 197.703 1414.68 179.495C1392.14 156.548 1363.73 156.505 1336.54 176.775C1325.22 185.243 1317.03 190.99 1312.49 166.508C1303.01 115.262 1264.53 86.963 1220.77 94.334C1202.88 97.3614 1187.09 93.8951 1172.56 78.1879C1147.32 50.9855 1108.25 57.128 1086.96 89.1567C1070.88 113.376 1054.28 130.706 1023.55 124.739C994.586 119.123 969.573 136.585 954.631 168.307C944.818 189.147 937.624 210.777 910.803 197.878C903.425 194.324 890.18 197.527 883.613 203.67C864.245 221.878 842.367 218.982 820.49 219.903C814.129 219.924 807.87 221.807 802.265 225.387C784.852 238.243 772.198 232.802 759.728 214.989C742.352 190.287 718.149 193.491 695.866 200.072C676.276 205.863 669.747 196.475 666.795 176.555C661.815 142.684 633.998 108.593 610.424 107.014C594.42 106.215 578.654 111.837 565.66 122.977C552.667 134.117 543.199 150.128 538.778 168.438C536.786 176.204 541.361 190.595 528.522 189.103C518.119 187.875 521.144 174.844 518.192 166.684C501.148 118.158 470.416 78.0125 416.258 80.3379C383.535 81.7418 340.813 110.567 329.967 163.7C325.392 186.12 316.833 192.043 298.903 191.78C273.595 191.385 253.415 207.267 237.588 229.248C224.196 247.808 211.763 251.186 190.624 244.605C160.851 235.303 134.141 233.768 117.945 191.604C106.14 160.892 53.1253 167.034 36.1548 196.518C24.6443 216.525 14.3144 217.885 0.221494 202.573C0.221494 238.375 0.59028 274.133 0 309.891C0 319.368 1.10671 323.404 9.66577 321.43C13.6169 320.99 17.5941 320.99 21.5453 321.43C740.138 321.43 1458.74 321.62 2177.36 322C2195.81 322 2199.31 316.472 2198.98 295.675C2197.87 223.325 2198.57 150.845 2198.57 78.3635Z" fill="#181B64"/>
<rect x="-583" y="295" width="3368" height="115" fill="#181B64"/>
</g>
<defs>
<clipPath id="clip0_165_40">
<rect width="2199" height="410" fill="white"/>
</clipPath>
</defs>
</svg>
