<svg width="1512" height="982" viewBox="0 0 1512 982" fill="none" xmlns="http://www.w3.org/2000/svg">
<g clip-path="url(#clip0_102_27)">
<rect width="1512" height="982" fill="#FAFAFA"/>
<path d="M-394.555 563.303C-360.856 565.327 -334.235 578.374 -320.04 608.228C-314 620.914 -304.421 622.143 -291.303 624.528C-261.066 630.022 -228.751 627.889 -201.092 643.9C-195.552 647.081 -190.205 645.201 -184.434 644.442C-127.269 636.816 -118.767 649.249 -91.0304 687.126C-77.0659 706.245 -59.0622 710.438 -44.8669 692.186C-21.7851 662.441 9.60601 657.309 44.9595 661.826C58.0446 663.915 70.0424 669.97 79.1205 679.066C101.741 699.631 141.98 695.908 164.523 675.452C210.379 634.069 273.315 625.251 328.826 676.753C339.367 686.548 345.214 686.909 361.641 684.307C390.762 679.608 404.188 661.61 422.846 646.611C446.351 627.708 475.973 627.672 504.325 644.37C516.135 651.345 524.675 656.08 529.407 635.913C539.293 593.699 579.417 570.387 625.042 576.459C643.7 578.953 660.165 576.097 675.322 563.159C701.635 540.751 742.374 545.81 764.571 572.194C781.344 592.145 798.655 606.421 830.7 601.505C860.899 596.879 886.981 611.264 902.562 637.395C912.795 654.562 920.296 672.38 948.263 661.754C955.957 658.827 969.768 661.465 976.615 666.525C996.812 681.524 1019.62 679.138 1042.44 679.897C1049.07 679.914 1055.6 681.466 1061.44 684.415C1079.6 695.005 1092.79 690.523 1105.8 675.85C1123.92 655.502 1149.15 658.14 1172.39 663.561C1192.81 668.332 1199.62 660.598 1202.7 644.189C1207.89 616.288 1236.9 588.205 1261.48 586.904C1278.17 586.246 1294.61 590.877 1308.16 600.054C1321.71 609.231 1331.58 622.42 1336.19 637.503C1338.27 643.9 1333.5 655.755 1346.89 654.526C1357.73 653.514 1354.58 642.78 1357.66 636.057C1375.43 596.084 1407.47 563.014 1463.95 564.93C1498.07 566.086 1542.62 589.831 1553.93 633.599C1558.7 652.068 1567.62 656.947 1586.32 656.73C1612.71 656.405 1633.75 669.488 1650.26 687.596C1664.22 702.884 1677.18 705.667 1699.23 700.245C1730.27 692.583 1758.12 691.318 1775.01 656.586C1787.32 631.287 1842.6 636.346 1860.3 660.634C1872.3 677.115 1883.07 678.235 1897.77 665.621C1897.77 695.113 1897.38 724.569 1898 754.025C1898 761.831 1896.85 765.157 1887.92 763.53C1883.8 763.168 1879.65 763.168 1875.53 763.53C1126.22 763.53 376.901 763.687 -372.435 764C-391.67 764 -395.325 759.446 -394.978 742.315C-393.824 682.717 -394.555 623.01 -394.555 563.303Z" fill="#E0E9E4"/>
<path d="M-17.5199 633H-26.882C-53.531 645.329 -68.6431 662.278 -69.5646 684.612C-69.8963 692.245 -73.1768 695.895 -85.4508 693.342C-91.8174 691.828 -98.6032 691.354 -105.278 691.956C-111.954 692.558 -118.337 694.221 -123.931 696.814C-126.926 698.25 -130.602 698.836 -134.202 698.452C-137.802 698.067 -141.052 696.741 -143.282 694.746C-164.218 676.827 -190.498 681.09 -217 685.404V757.743V1333H1906.7L1979.31 829.904V764.124C1952.99 759.045 1927.67 757.794 1906.7 773.109C1900.39 777.653 1893.72 774.973 1886.79 774.386C1877.54 773.645 1868.36 768.719 1859.11 771.833C1833.31 780.461 1831.28 771.501 1831.28 756.518C1831.17 738.139 1804.78 717.081 1779.9 711.516C1744.11 703.603 1714.88 710.47 1689.97 729.129C1684.66 733.06 1683.37 742.428 1671.54 738.982C1666.38 737.695 1661.75 735.565 1658.03 732.775C1654.32 729.984 1651.63 726.615 1650.2 722.952C1641.61 702.506 1619.34 692.194 1588.94 690.075C1564.57 688.314 1546.11 695.844 1532.36 708.734C1523.36 717.157 1514.67 719.276 1500.11 715.396C1452.04 702.583 1423 706.718 1394.1 734.642C1378.91 749.294 1363.91 740.667 1347.88 740.871C1331.85 741.075 1332.84 731.197 1330.37 724.279C1314.04 678.767 1275.38 657.428 1209.25 659.113C1180.21 659.853 1156.14 669.68 1137.19 684.357C1119.06 698.473 1100.67 702.251 1074.53 693.98C1042.54 683.847 1007.97 693.342 990.422 715.422C983.787 723.717 976.158 724.866 963.405 723.717C941.289 721.778 919.174 722.314 900.745 732.651C894.11 736.378 889.429 737.884 883.495 732.039C865.139 713.89 834.067 715.396 807.934 709.347C805.206 708.734 799.641 710.061 799.162 709.347C787.699 691.172 757.474 688.646 740.187 675.117C710.774 652.144 666.322 653.063 639.01 677.67C629.132 686.578 619.512 692.194 602.962 693.368C582.984 694.772 571.779 709.525 550.659 711.083C540.412 711.823 533.299 710.393 523.457 708.173C495.297 701.842 473.514 688.467 447.381 681.013C426.961 675.168 394.599 681.167 377.349 701.919C373.775 706.861 369.357 711.489 364.19 715.703C350.847 725.326 340.785 723.641 333.413 711.491C304.59 663.095 232.088 659.138 187.157 687.956C179.343 692.985 175.326 692.194 165.742 690.815C136.476 686.578 114.14 675.321 92.0246 662.737L82.4781 662.533C68.0295 668.2 50.0424 664.652 35.778 671.288C34.8701 671.598 33.8773 671.77 32.8659 671.793C31.8544 671.815 30.8476 671.688 29.9127 671.42C28.9777 671.152 28.1361 670.749 27.4441 670.237C26.7521 669.726 26.2256 669.118 25.8998 668.455C16.6851 653.42 -5.61452 646.324 -17.5199 633Z" fill="#0E321C"/>
</g>
<defs>
<clipPath id="clip0_102_27">
<rect width="1512" height="982" fill="white"/>
</clipPath>
</defs>
</svg>
