<svg width="1784" height="253" viewBox="0 0 1784 253" fill="none" xmlns="http://www.w3.org/2000/svg">
<rect width="1784" height="253" fill="#E5E5E5"/>
<rect width="1917" height="295" transform="translate(5)" fill="white"/>
<path opacity="0.4" d="M-209.555 52.3032C-175.856 54.3272 -149.235 67.3744 -135.04 97.2278C-129 109.914 -119.421 111.143 -106.303 113.528C-76.0658 119.022 -43.7514 116.889 -16.0918 132.9C-10.5522 136.081 -5.2049 134.201 0.565536 133.442C57.7313 125.816 66.2331 138.249 93.9696 176.126C107.934 195.245 125.938 199.438 140.133 181.186C163.215 151.441 194.606 146.309 229.96 150.826C243.045 152.915 255.042 158.97 264.121 168.066C286.741 188.631 326.98 184.908 349.523 164.452C395.379 123.069 458.315 114.251 513.826 165.753C524.367 175.548 530.214 175.909 546.641 173.307C575.762 168.608 589.188 150.61 607.846 135.611C631.351 116.708 660.973 116.672 689.325 133.37C701.135 140.345 709.675 145.08 714.407 124.913C724.293 82.6987 764.417 59.3871 810.042 65.459C828.7 67.9528 845.165 65.0975 860.322 52.1586C886.635 29.7506 927.374 34.8104 949.571 61.1941C966.344 81.1445 983.655 95.4207 1015.7 90.5054C1045.9 85.8792 1071.98 100.264 1087.56 126.395C1097.79 143.562 1105.3 161.38 1133.26 150.754C1140.96 147.827 1154.77 150.465 1161.62 155.525C1181.81 170.524 1204.62 168.138 1227.44 168.897C1234.07 168.914 1240.6 170.466 1246.44 173.415C1264.6 184.005 1277.79 179.523 1290.8 164.85C1308.92 144.502 1334.15 147.14 1357.39 152.561C1377.81 157.332 1384.62 149.598 1387.7 133.189C1392.89 105.288 1421.9 77.2051 1446.48 75.904C1463.17 75.2459 1479.61 79.8773 1493.16 89.054C1506.71 98.2307 1516.58 111.42 1521.19 126.503C1523.27 132.9 1518.5 144.755 1531.89 143.526C1542.73 142.514 1539.58 131.78 1542.66 125.057C1560.43 85.0842 1592.47 52.0141 1648.95 53.9297C1683.07 55.0862 1727.62 78.8314 1738.93 122.599C1743.7 141.068 1752.62 145.947 1771.32 145.73C1797.71 145.405 1818.75 158.488 1835.26 176.596C1849.22 191.884 1862.18 194.667 1884.23 189.245C1915.27 181.583 1943.12 180.318 1960.01 145.586C1972.32 120.287 2027.6 125.346 2045.3 149.634C2057.3 166.115 2068.07 167.235 2082.77 154.621C2082.77 184.113 2082.38 213.569 2083 243.025C2083 250.831 2081.85 254.157 2072.92 252.53C2068.8 252.168 2064.65 252.168 2060.53 252.53C1311.22 252.53 561.901 252.687 -187.435 253C-206.67 253 -210.325 248.446 -209.978 231.315C-208.824 171.717 -209.555 112.01 -209.555 52.3032Z" fill="#FFF4CF"/>
<path d="M174.566 61H166.373C143.053 80.3036 129.828 106.841 129.021 141.811C128.731 153.761 125.86 159.476 115.119 155.48C109.548 153.109 103.61 152.366 97.7682 153.309C91.9267 154.252 86.3402 156.855 81.4448 160.915C78.8243 163.164 75.6073 164.082 72.4568 163.48C69.3064 162.877 66.4623 160.801 64.5107 157.678C46.1897 129.622 23.1916 136.296 0 143.05V256.314V848L1922 833.747V369.298V266.305C1898.97 258.352 1876.81 256.394 1858.46 280.374C1852.94 287.487 1847.1 283.291 1841.04 282.372C1832.94 281.213 1824.91 273.499 1816.82 278.375C1794.24 291.884 1792.46 277.856 1792.46 254.396C1792.37 225.62 1769.27 192.648 1747.5 183.935C1716.18 171.546 1690.6 182.297 1668.8 211.512C1664.15 217.667 1663.02 232.334 1652.67 226.939C1648.16 224.923 1644.1 221.59 1640.85 217.221C1637.6 212.852 1635.25 207.576 1633.99 201.84C1626.48 169.827 1606.99 153.681 1580.38 150.364C1559.06 147.606 1542.9 159.396 1530.87 179.579C1523 192.768 1515.39 196.085 1502.65 190.01C1460.59 169.947 1435.17 176.422 1409.88 220.145C1396.59 243.085 1383.46 229.577 1369.43 229.896C1355.4 230.216 1356.27 214.749 1354.11 203.919C1339.82 132.659 1305.99 99.2475 1248.12 101.885C1222.7 103.044 1201.64 118.431 1185.06 141.412C1169.19 163.513 1153.1 169.428 1130.23 156.479C1102.23 140.612 1071.97 155.48 1056.62 190.05C1050.82 203.039 1044.14 204.838 1032.98 203.039C1013.62 200.002 994.271 200.841 978.144 217.027C972.338 222.862 968.241 225.22 963.048 216.068C946.985 187.652 919.794 190.01 896.925 180.538C894.538 179.579 889.667 181.657 889.248 180.538C879.217 152.082 852.767 148.126 837.639 126.944C811.9 90.9745 773 92.4133 749.098 130.941C740.454 144.889 732.035 153.681 717.553 155.52C700.07 157.718 690.265 180.818 671.782 183.256C662.815 184.415 656.59 182.177 647.978 178.7C623.335 168.788 604.272 147.846 581.403 136.176C563.533 127.024 535.213 136.416 520.118 168.908C516.99 176.647 513.124 183.893 508.602 190.49C496.926 205.557 488.12 202.919 481.669 183.896C456.446 108.12 392.999 101.925 353.68 147.047C346.842 154.92 343.326 153.681 334.94 151.523C309.329 144.889 289.782 127.264 270.429 107.56L262.075 107.241C249.431 116.113 233.69 110.558 221.207 120.949C220.413 121.434 219.544 121.703 218.659 121.739C217.774 121.774 216.893 121.576 216.074 121.156C215.256 120.736 214.52 120.104 213.914 119.304C213.309 118.503 212.848 117.552 212.563 116.513C204.499 92.9729 184.984 81.8623 174.566 61Z" fill="#FFD986"/>
</svg>
