<svg width="1512" height="132" viewBox="0 0 1512 132" fill="none" xmlns="http://www.w3.org/2000/svg">
<path d="M1512 42.3765L1495.2 44.7161C1478.4 47.2322 1444.8 51.6464 1411.2 58.8415C1377.6 65.7718 1344 75.4831 1310.4 65.9042C1276.8 56.502 1243.2 28.251 1209.6 37.6533C1176 47.2321 1142.4 94.0227 1108.8 105.941C1075.2 117.859 1041.6 94.0227 1008 94.1551C974.4 94.0227 940.8 117.859 907.2 127.129C873.6 136.399 840 131.985 806.4 117.727C772.8 103.734 739.2 79.8972 705.6 70.6274C672 61.3575 638.4 65.7718 604.8 65.9042C571.2 65.7718 537.6 61.3575 504 63.5646C470.4 65.7717 436.8 75.483 403.2 84.7528C369.6 94.0227 336 103.734 302.4 110.664C268.8 117.859 235.2 122.274 201.6 113.004C168 103.734 134.4 79.8972 100.8 75.3505C67.1999 70.6273 33.5999 84.7528 16.7999 91.8155L-5.52785e-05 98.8783L-4.66343e-05 1.62965e-06L16.7999 3.09835e-06C33.5999 4.56705e-06 67.1999 7.50446e-06 100.8 1.04419e-05C134.4 1.33793e-05 168 1.63167e-05 201.6 1.92541e-05C235.2 2.21915e-05 268.8 2.51289e-05 302.4 2.80663e-05C336 3.10037e-05 369.6 3.39411e-05 403.2 3.68785e-05C436.8 3.98159e-05 470.4 4.27533e-05 504 4.56907e-05C537.6 4.86281e-05 571.2 5.15655e-05 604.8 5.45029e-05C638.4 5.74404e-05 672 6.03778e-05 705.6 6.33152e-05C739.2 6.62526e-05 772.8 6.919e-05 806.4 7.21274e-05C840 7.50648e-05 873.6 7.80022e-05 907.2 8.09396e-05C940.8 8.3877e-05 974.4 8.68144e-05 1008 8.97518e-05C1041.6 9.26892e-05 1075.2 9.56266e-05 1108.8 9.8564e-05C1142.4 0.000101501 1176 0.000104439 1209.6 0.000107376C1243.2 0.000110314 1276.8 0.000113251 1310.4 0.000116188C1344 0.000119126 1377.6 0.000122063 1411.2 0.000125001C1444.8 0.000127938 1478.4 0.000130875 1495.2 0.000132344L1512 0.000133813L1512 42.3765Z" fill="#181B64"/>
</svg>
