<svg width="163" height="157" viewBox="0 0 163 157" fill="none" xmlns="http://www.w3.org/2000/svg">
<path opacity="0.3" d="M68.721 142.478C47.9282 137.691 23.056 116.81 16.0612 98.0376C9.06633 79.2653 13.062 43.7121 26.7518 29.844C40.4417 15.976 80.4208 9.10309 98.2003 14.8293C115.98 20.5555 126.326 45.5462 133.429 64.2012C140.532 82.8563 151.602 113.714 140.818 126.76C130.033 139.806 89.5137 147.265 68.721 142.478C47.9282 137.691 23.056 116.81 16.0612 98.0376Z" fill="url(#paint0_linear_19_9)"/>
<path d="M65.2054 52.6619C54.3121 64.8839 46.8363 82.443 46.1421 84.0975L34.074 78.9205C30.6031 77.4261 29.7487 72.8896 32.4186 70.221L48.4916 54.1563C51.0014 51.6479 54.6325 50.5271 58.1568 51.2209L65.2054 52.6619V52.6619ZM73.1619 106.887C74.7638 108.488 77.1134 108.915 79.1425 107.954C85.3368 105.072 98.633 98.2942 107.23 89.7014C131.74 65.2041 131.954 45.2433 130.512 36.704C130.323 35.655 129.818 34.689 129.064 33.9353C128.31 33.1817 127.343 32.6765 126.294 32.4877C117.75 31.0466 97.7787 31.2601 73.2687 55.7574C64.6715 64.3502 57.9432 77.6396 55.0063 83.8306C54.0451 85.8587 54.5257 88.2604 56.0743 89.8082L73.1619 106.887V106.887ZM110.381 97.8138C98.1525 108.702 80.5843 116.173 78.9289 116.867L84.1086 128.929C85.6038 132.398 90.1427 133.252 92.8126 130.584L108.886 114.519C111.395 112.011 112.517 108.381 111.823 104.859L110.381 97.8138ZM63.8705 111.69C64.3883 114.275 64.2595 116.948 63.4957 119.471C62.7318 121.994 61.3565 124.29 59.4918 126.154C55.3801 130.263 42.6178 133.306 34.341 134.907C30.6565 135.601 27.3991 132.345 28.0933 128.662C29.6953 120.39 32.6856 107.634 36.8507 103.525C38.716 101.661 41.0128 100.286 43.5372 99.5227C46.0616 98.7592 48.7356 98.6306 51.3218 99.1481C57.5694 100.322 62.6957 105.446 63.8705 111.69V111.69ZM85.5504 66.8052C85.5504 60.9344 90.3562 56.131 96.2301 56.131C102.104 56.131 106.91 60.9344 106.91 66.8052C106.91 72.6761 102.104 77.4795 96.2301 77.4795C90.3562 77.4795 85.5504 72.6761 85.5504 66.8052Z" fill="#181B64"/>
<defs>
<linearGradient id="paint0_linear_19_9" x1="160.738" y1="40.0689" x2="13.0139" y2="64.1409" gradientUnits="userSpaceOnUse">
<stop stop-color="#FFF4CF"/>
<stop offset="1" stop-color="#FFDB5C" stop-opacity="0.78"/>
</linearGradient>
</defs>
</svg>
