<svg width="138" height="133" viewBox="0 0 138 133" fill="none" xmlns="http://www.w3.org/2000/svg">
<path opacity="0.3" d="M58.0898 120.437C40.5137 116.39 19.4893 98.7394 13.5765 82.8712C7.66378 67.0029 11.0413 36.9498 22.6133 25.2271C34.1854 13.5045 67.9797 7.69485 83.0087 12.5352C98.0378 17.3756 106.784 38.5002 112.788 54.2693C118.792 70.0384 128.149 96.1221 119.033 107.15C109.917 118.178 75.6659 124.483 58.0898 120.437C40.5137 116.39 19.4893 98.7394 13.5765 82.8712Z" fill="url(#paint0_linear_19_6)"/>
<path d="M29.416 42.2658C29.416 38.4671 30.925 34.8241 33.6111 32.138C36.2972 29.4519 39.9402 27.9429 43.7389 27.9429H119.26C123.058 27.9429 126.702 29.4519 129.388 32.138C132.074 34.8241 133.583 38.4671 133.583 42.2658V96.9533C133.583 98.8342 133.212 100.697 132.492 102.434C131.773 104.172 130.718 105.751 129.388 107.081C128.058 108.411 126.479 109.466 124.741 110.186C123.003 110.906 121.141 111.276 119.26 111.276H83.9733L73.2962 100.599C75.2129 96.7606 76.291 92.4221 76.291 87.8387H98.4264C99.4624 87.8387 100.456 87.4272 101.189 86.6946C101.921 85.9621 102.333 84.9685 102.333 83.9325C102.333 82.8965 101.921 81.9029 101.189 81.1704C100.456 80.4378 99.4624 80.0262 98.4264 80.0262H75.2129C74.43 77.2577 73.2324 74.6236 71.6608 72.2137H108.843C109.879 72.2137 110.873 71.8022 111.605 71.0696C112.338 70.3371 112.749 69.3435 112.749 68.3075C112.749 67.2715 112.338 66.2779 111.605 65.5454C110.873 64.8128 109.879 64.4012 108.843 64.4012H64.1191C59.4577 61.12 53.7754 59.1929 47.6452 59.1929C40.7181 59.1929 34.3639 61.6512 29.416 65.7398V42.2658ZM54.1556 48.7762C53.1196 48.7762 52.126 49.1878 51.3934 49.9204C50.6609 50.6529 50.2493 51.6465 50.2493 52.6825C50.2493 53.7185 50.6609 54.7121 51.3934 55.4446C52.126 56.1772 53.1196 56.5887 54.1556 56.5887H88.0097C89.0457 56.5887 90.0393 56.1772 90.7719 55.4446C91.5044 54.7121 91.916 53.7185 91.916 52.6825C91.916 51.6465 91.5044 50.6529 90.7719 49.9204C90.0393 49.1878 89.0457 48.7762 88.0097 48.7762H54.1556ZM47.6452 111.276C52.5124 111.283 57.26 109.768 61.2233 106.943L74.8327 120.547C75.1903 120.931 75.6215 121.239 76.1007 121.452C76.5799 121.666 77.0971 121.78 77.6216 121.79C78.1461 121.799 78.6671 121.703 79.1535 121.506C79.6399 121.31 80.0817 121.017 80.4527 120.646C80.8236 120.275 81.116 119.833 81.3125 119.347C81.5089 118.861 81.6054 118.34 81.5962 117.815C81.5869 117.291 81.4721 116.773 81.2586 116.294C81.0451 115.815 80.7373 115.384 80.3535 115.026L66.7493 101.417C69.7932 97.1343 71.3098 91.9533 71.0557 86.7054C70.8017 81.4575 68.7917 76.4472 65.3484 72.4787C61.9051 68.5103 57.2283 65.8139 52.0686 64.8224C46.909 63.8308 41.5659 64.6018 36.8969 67.0113C32.228 69.4209 28.5041 73.3293 26.323 78.1093C24.142 82.8892 23.6302 88.2634 24.87 93.369C26.1097 98.4747 29.029 103.016 33.1593 106.263C37.2895 109.511 42.3911 111.276 47.6452 111.276V111.276ZM47.6452 103.464C43.5012 103.464 39.5269 101.818 36.5966 98.8873C33.6664 95.957 32.0202 91.9827 32.0202 87.8387C32.0202 83.6947 33.6664 79.7204 36.5966 76.7902C39.5269 73.8599 43.5012 72.2137 47.6452 72.2137C51.7892 72.2137 55.7635 73.8599 58.6937 76.7902C61.624 79.7204 63.2702 83.6947 63.2702 87.8387C63.2702 91.9827 61.624 95.957 58.6937 98.8873C55.7635 101.818 51.7892 103.464 47.6452 103.464V103.464Z" fill="#181B64"/>
<defs>
<linearGradient id="paint0_linear_19_6" x1="135.872" y1="33.8702" x2="11.0007" y2="54.2183" gradientUnits="userSpaceOnUse">
<stop stop-color="#FFF4CF"/>
<stop offset="1" stop-color="#FFDB5C" stop-opacity="0.78"/>
</linearGradient>
</defs>
</svg>
