<svg width="27" height="28" viewBox="0 0 27 28" fill="none" xmlns="http://www.w3.org/2000/svg">
<path fill-rule="evenodd" clip-rule="evenodd" d="M10.0292 9.7566H15.043V12.3466C15.7653 10.857 17.6175 9.5186 20.3999 9.5186C25.7337 9.5186 27 12.4838 27 17.9242V28H21.6V19.1632C21.6 16.065 20.8778 14.3178 19.0391 14.3178C16.4889 14.3178 15.4292 16.2008 15.4292 19.1618V28H10.0292V9.7566V9.7566ZM0.7695 27.762H6.1695V9.5186H0.7695V27.762V27.762ZM6.94305 3.57C6.94325 4.03939 6.85349 4.50413 6.67897 4.93722C6.50446 5.37031 6.24868 5.76312 5.9265 6.0928C5.27364 6.76567 4.38994 7.14231 3.4695 7.14C2.55068 7.13936 1.66902 6.76368 1.0152 6.0942C0.694185 5.7634 0.439271 5.37015 0.265064 4.937C0.090857 4.50386 0.000781828 4.03931 0 3.57C0 2.6222 0.3645 1.715 1.01655 1.0458C1.66979 0.375422 2.55182 -0.000418895 3.47085 3.5037e-07C4.39155 3.5037e-07 5.27445 0.3766 5.9265 1.0458C6.5772 1.715 6.94305 2.6222 6.94305 3.57Z" fill="black"/>
</svg>
