<svg width="23" height="23" viewBox="0 0 23 23" fill="none" xmlns="http://www.w3.org/2000/svg">
<path d="M11.5 2.12963C16.675 2.12963 20.8704 6.325 20.8704 11.5C20.8704 16.675 16.675 20.8704 11.5 20.8704C6.325 20.8704 2.12963 16.675 2.12963 11.5C2.12963 11.3143 2.13474 11.1294 2.14581 10.9463C2.18074 10.344 1.72841 9.7963 1.12444 9.7963C0.550296 9.7963 0.0562223 10.2171 0.0212964 10.7904C0.00766675 11.0247 0 11.2615 0 11.5C0 17.8514 5.14859 23 11.5 23C17.8514 23 23 17.8514 23 11.5C23 5.14859 17.8514 0 11.5 0C8.75619 0 6.23556 0.960889 4.25926 2.56493V1.91667C4.25926 1.63426 4.14707 1.36342 3.94738 1.16373C3.74769 0.964037 3.47685 0.851852 3.19444 0.851852C2.91204 0.851852 2.6412 0.964037 2.44151 1.16373C2.24182 1.36342 2.12963 1.63426 2.12963 1.91667V5.75C2.12963 6.33778 2.60667 6.81482 3.19444 6.81482H7.02778C7.31018 6.81482 7.58102 6.70263 7.78072 6.50294C7.98041 6.30325 8.09259 6.03241 8.09259 5.75C8.09259 5.46759 7.98041 5.19675 7.78072 4.99706C7.58102 4.79737 7.31018 4.68519 7.02778 4.68519H5.06852C6.74667 3.10074 9.01004 2.12963 11.5 2.12963ZM12.7778 5.75C12.7778 5.46759 12.6656 5.19675 12.4659 4.99706C12.2662 4.79737 11.9954 4.68519 11.713 4.68519C11.4306 4.68519 11.1597 4.79737 10.96 4.99706C10.7603 5.19675 10.6481 5.46759 10.6481 5.75V11.287C10.6481 11.8748 11.1252 12.3519 11.713 12.3519H14.6944C14.9769 12.3519 15.2477 12.2397 15.4474 12.04C15.6471 11.8403 15.7593 11.5694 15.7593 11.287C15.7593 11.0046 15.6471 10.7338 15.4474 10.5341C15.2477 10.3344 14.9769 10.2222 14.6944 10.2222H12.7778V5.75Z" fill="white" fill-opacity="0.58"/>
</svg>
