<svg width="25" height="25" viewBox="0 0 25 25" fill="none" xmlns="http://www.w3.org/2000/svg">
<path fill-rule="evenodd" clip-rule="evenodd" d="M12.5 0C5.59659 0 0 5.4217 0 12.1094C0 18.7971 5.59659 24.2188 12.5 24.2188C19.4034 24.2188 25 18.7971 25 12.1094C25 5.4217 19.4034 0 12.5 0ZM2.27273 12.1094C2.27273 14.4102 3.08295 16.5282 4.44091 18.2103C5.39458 16.997 6.62489 16.0138 8.03572 15.3374C9.44655 14.661 10.9997 14.3098 12.5739 14.3111C14.1276 14.3097 15.6613 14.6518 17.0579 15.3115C18.4545 15.9712 19.6772 16.931 20.633 18.1178C21.6176 16.8668 22.2805 15.4067 22.5669 13.8582C22.8534 12.3097 22.755 10.7174 22.2801 9.21302C21.8052 7.70864 20.9673 6.33546 19.8358 5.20707C18.7043 4.07869 17.3116 3.22754 15.7732 2.72407C14.2347 2.22059 12.5945 2.07926 10.9885 2.31176C9.38241 2.54426 7.85658 3.14391 6.53724 4.0611C5.21789 4.97829 4.14297 6.18665 3.4014 7.58619C2.65983 8.98573 2.27293 10.5362 2.27273 12.1094ZM12.5 22.017C10.1522 22.0205 7.8753 21.238 6.05455 19.8021C6.78742 18.7858 7.76288 17.9559 8.89795 17.3832C10.033 16.8105 11.2941 16.5119 12.5739 16.5128C13.8377 16.5118 15.0835 16.8029 16.2079 17.362C17.3322 17.9211 18.3027 18.7319 19.0386 19.7273C17.2037 21.2098 14.8893 22.0203 12.5 22.017Z" fill="white" fill-opacity="0.58"/>
</svg>
