<svg width="70" height="70" viewBox="0 0 70 70" fill="none" xmlns="http://www.w3.org/2000/svg">
<circle cx="34.8333" cy="34.8333" r="29.8333" fill="#FFDB5C" stroke="white" stroke-width="10"/>
<path d="M31.5375 32.8067C31.5775 31.7367 31.9275 30.9117 32.5875 30.3317C33.2475 29.7517 34.1425 29.4617 35.2725 29.4617C36.0225 29.4617 36.6625 29.5917 37.1925 29.8517C37.7325 30.1117 38.1375 30.4667 38.4075 30.9167C38.6875 31.3667 38.8275 31.8717 38.8275 32.4317C38.8275 33.0917 38.6625 33.6317 38.3325 34.0517C38.0025 34.4617 37.6175 34.7417 37.1775 34.8917V34.9517C37.7475 35.1417 38.1975 35.4567 38.5275 35.8967C38.8575 36.3367 39.0225 36.9017 39.0225 37.5917C39.0225 38.2117 38.8775 38.7617 38.5875 39.2417C38.3075 39.7117 37.8925 40.0817 37.3425 40.3517C36.8025 40.6217 36.1575 40.7567 35.4075 40.7567C34.2075 40.7567 33.2475 40.4617 32.5275 39.8717C31.8175 39.2817 31.4425 38.3917 31.4025 37.2017H33.8925C33.9025 37.6417 34.0275 37.9917 34.2675 38.2517C34.5075 38.5017 34.8575 38.6267 35.3175 38.6267C35.7075 38.6267 36.0075 38.5167 36.2175 38.2967C36.4375 38.0667 36.5475 37.7667 36.5475 37.3967C36.5475 36.9167 36.3925 36.5717 36.0825 36.3617C35.7825 36.1417 35.2975 36.0317 34.6275 36.0317H34.1475V33.9467H34.6275C35.1375 33.9467 35.5475 33.8617 35.8575 33.6917C36.1775 33.5117 36.3375 33.1967 36.3375 32.7467C36.3375 32.3867 36.2375 32.1067 36.0375 31.9067C35.8375 31.7067 35.5625 31.6067 35.2125 31.6067C34.8325 31.6067 34.5475 31.7217 34.3575 31.9517C34.1775 32.1817 34.0725 32.4667 34.0425 32.8067H31.5375Z" fill="black"/>
</svg>
