<svg width="70" height="70" viewBox="0 0 70 70" fill="none" xmlns="http://www.w3.org/2000/svg">
<circle cx="34.8333" cy="34.8333" r="29.8333" fill="#FFDB5C" stroke="white" stroke-width="10"/>
<path d="M30.6735 39.2726C31.0135 39.0026 31.1685 38.8776 31.1385 38.8976C32.1185 38.0876 32.8885 37.4226 33.4485 36.9026C34.0185 36.3826 34.4985 35.8376 34.8885 35.2676C35.2785 34.6976 35.4735 34.1426 35.4735 33.6026C35.4735 33.1926 35.3785 32.8726 35.1885 32.6426C34.9985 32.4126 34.7135 32.2976 34.3335 32.2976C33.9535 32.2976 33.6535 32.4426 33.4335 32.7326C33.2235 33.0126 33.1185 33.4126 33.1185 33.9326H30.6435C30.6635 33.0826 30.8435 32.3726 31.1835 31.8026C31.5335 31.2326 31.9885 30.8126 32.5485 30.5426C33.1185 30.2726 33.7485 30.1376 34.4385 30.1376C35.6285 30.1376 36.5235 30.4426 37.1235 31.0526C37.7335 31.6626 38.0385 32.4576 38.0385 33.4376C38.0385 34.5076 37.6735 35.5026 36.9435 36.4226C36.2135 37.3326 35.2835 38.2226 34.1535 39.0926H38.2035V41.1776H30.6735V39.2726Z" fill="black"/>
</svg>
