<svg width="163" height="157" viewBox="0 0 163 157" fill="none" xmlns="http://www.w3.org/2000/svg">
<path opacity="0.3" d="M68.7209 142.478C47.9282 137.691 23.056 116.81 16.0611 98.0376C9.06627 79.2653 13.0619 43.7121 26.7518 29.844C40.4416 15.976 80.4207 9.10309 98.2003 14.8293C115.98 20.5555 126.326 45.5462 133.429 64.2012C140.532 82.8563 151.602 113.714 140.817 126.76C130.033 139.806 89.5136 147.265 68.7209 142.478C47.9282 137.691 23.056 116.81 16.0611 98.0376Z" fill="url(#paint0_linear_19_12)"/>
<path d="M92.7713 23.0007H57.3743C53.8271 23.0007 50.4251 24.4098 47.9168 26.9181C45.4085 29.4264 43.9993 32.8284 43.9993 36.3757V116.626C43.9993 120.173 45.4085 123.575 47.9168 126.083C50.4251 128.592 53.8271 130.001 57.3743 130.001H110.874C114.422 130.001 117.824 128.592 120.332 126.083C122.84 123.575 124.249 120.173 124.249 116.626V54.4787C124.249 52.7052 123.544 51.0045 122.29 49.7507L97.4993 24.9601C96.2455 23.7059 94.5448 23.0011 92.7713 23.0007V23.0007ZM94.1556 46.4069V33.0319L114.218 53.0944H100.843C99.0694 53.0944 97.3685 52.3898 96.1143 51.1357C94.8602 49.8815 94.1556 48.1806 94.1556 46.4069ZM97.4993 113.282V73.1569C97.4993 72.2701 97.8516 71.4196 98.4787 70.7925C99.1058 70.1655 99.9563 69.8132 100.843 69.8132H107.531C108.417 69.8132 109.268 70.1655 109.895 70.7925C110.522 71.4196 110.874 72.2701 110.874 73.1569V113.282C110.874 114.169 110.522 115.019 109.895 115.646C109.268 116.273 108.417 116.626 107.531 116.626H100.843C99.9563 116.626 99.1058 116.273 98.4787 115.646C97.8516 115.019 97.4993 114.169 97.4993 113.282ZM80.7806 116.626C79.8938 116.626 79.0433 116.273 78.4162 115.646C77.7891 115.019 77.4368 114.169 77.4368 113.282V86.5319C77.4368 85.6451 77.7891 84.7946 78.4162 84.1675C79.0433 83.5405 79.8938 83.1882 80.7806 83.1882H87.4681C88.3549 83.1882 89.2054 83.5405 89.8325 84.1675C90.4595 84.7946 90.8118 85.6451 90.8118 86.5319V113.282C90.8118 114.169 90.4595 115.019 89.8325 115.646C89.2054 116.273 88.3549 116.626 87.4681 116.626H80.7806ZM60.7181 116.626C59.8313 116.626 58.9808 116.273 58.3537 115.646C57.7266 115.019 57.3743 114.169 57.3743 113.282V99.9069C57.3743 99.0201 57.7266 98.1696 58.3537 97.5425C58.9808 96.9155 59.8313 96.5632 60.7181 96.5632H67.4056C68.2924 96.5632 69.1429 96.9155 69.77 97.5425C70.397 98.1696 70.7493 99.0201 70.7493 99.9069V113.282C70.7493 114.169 70.397 115.019 69.77 115.646C69.1429 116.273 68.2924 116.626 67.4056 116.626H60.7181Z" fill="#191C64"/>
<defs>
<linearGradient id="paint0_linear_19_12" x1="160.738" y1="40.0689" x2="13.0138" y2="64.1409" gradientUnits="userSpaceOnUse">
<stop stop-color="#FFF4CF"/>
<stop offset="1" stop-color="#FFDB5C" stop-opacity="0.78"/>
</linearGradient>
</defs>
</svg>
