<svg width="24" height="22" viewBox="0 0 24 22" fill="none" xmlns="http://www.w3.org/2000/svg">
<path d="M14.2 5.33461V3.26582C14.2 2.95241 14.1368 2.64241 14.0146 2.35542C13.8923 2.06843 13.7136 1.81068 13.4896 1.59847C13.2657 1.38626 13.0015 1.2242 12.7137 1.12253C12.4258 1.02087 12.1206 0.981806 11.8174 1.00782L3.0174 1.76237C2.46746 1.80955 1.95481 2.06788 1.58113 2.48612C1.20745 2.90437 1.00003 3.45199 1 4.02037V17.9785C1.00003 18.5469 1.20745 19.0945 1.58113 19.5127C1.95481 19.931 2.46746 20.1893 3.0174 20.2365L11.8174 20.9922C12.1207 21.0182 12.426 20.9791 12.7139 20.8774C13.0018 20.7756 13.2661 20.6135 13.49 20.4011C13.714 20.1888 13.8927 19.9309 14.0149 19.6438C14.1371 19.3567 14.2001 19.0466 14.2 18.7331V16.6643M13.1 10.9994H23H13.1ZM23 10.9994L19.3337 6.46758L23 10.9994ZM23 10.9994L19.3337 15.5313L23 10.9994Z" stroke="#FF7A7A" stroke-opacity="0.58" stroke-width="2" stroke-linecap="round" stroke-linejoin="round"/>
</svg>
